<?xml version="1.0" encoding="UTF-8"?>
<svg width="1200pt" height="1200pt" version="1.1" viewBox="0 0 1200 1200" xmlns="http://www.w3.org/2000/svg">
 <g fill="#2d3042">
  <path d="m792 468h-384c-12.863 0-24.746-6.8633-31.176-18-6.4336-11.137-6.4336-24.863 0-36 6.4297-11.137 18.312-18 31.176-18h384c12.863 0 24.746 6.8633 31.176 18 6.4336 11.137 6.4336 24.863 0 36-6.4297 11.137-18.312 18-31.176 18z"/>
  <path d="m792 636h-384c-12.863 0-24.746-6.8633-31.176-18-6.4336-11.137-6.4336-24.863 0-36 6.4297-11.137 18.312-18 31.176-18h384c12.863 0 24.746 6.8633 31.176 18 6.4336 11.137 6.4336 24.863 0 36-6.4297 11.137-18.312 18-31.176 18z"/>
  <path d="m792 804h-384c-12.863 0-24.746-6.8633-31.176-18-6.4336-11.137-6.4336-24.863 0-36 6.4297-11.137 18.312-18 31.176-18h384c12.863 0 24.746 6.8633 31.176 18 6.4336 11.137 6.4336 24.863 0 36-6.4297 11.137-18.312 18-31.176 18z"/>
  <path d="m600 1092c-130.49 0-255.63-51.836-347.9-144.1-92.266-92.27-144.1-217.41-144.1-347.9s51.836-255.63 144.1-347.9c92.27-92.266 217.41-144.1 347.9-144.1s255.63 51.836 347.9 144.1c92.266 92.27 144.1 217.41 144.1 347.9s-51.836 255.63-144.1 347.9c-92.27 92.266-217.41 144.1-347.9 144.1zm0-912c-111.39 0-218.22 44.25-296.98 123.02s-123.02 185.59-123.02 296.98 44.25 218.22 123.02 296.98 185.59 123.02 296.98 123.02 218.22-44.25 296.98-123.02 123.02-185.59 123.02-296.98-44.25-218.22-123.02-296.98-185.59-123.02-296.98-123.02z"/>
 </g>
</svg>
