<svg width="35" height="35" viewBox="0 0 35 35" fill="none" xmlns="http://www.w3.org/2000/svg">
<path d="M31.395 23.8175V29.9688C31.395 30.0913 31.3775 30.205 31.3512 30.31C31.2287 30.9138 30.695 31.3688 30.065 31.3688H4.92623C4.25248 31.3688 3.69248 30.8525 3.62248 30.1963C3.60498 30.1175 3.60498 30.0475 3.60498 29.96V23.8088C3.60498 23.0825 4.19998 22.4963 4.91748 22.4963C5.27623 22.4963 5.60873 22.645 5.84498 22.8813C6.08123 23.1175 6.22998 23.45 6.22998 23.8088V28.735H28.7787V23.8088C28.7787 23.0825 29.3737 22.4963 30.0912 22.4963C30.45 22.4963 30.7825 22.645 31.0187 22.8813C31.2462 23.1263 31.395 23.4588 31.395 23.8175Z" fill="#E4BEBE"/>
<path d="M25.0688 17.6575L18.62 24.1063C18.6113 24.1238 18.5938 24.1325 18.585 24.1413C18.3488 24.3775 18.0425 24.5263 17.7363 24.57C17.71 24.57 17.6838 24.5788 17.6575 24.5788C17.605 24.5875 17.5525 24.5875 17.5 24.5875L17.3513 24.5788C17.325 24.5788 17.2988 24.57 17.2725 24.57C16.9575 24.5263 16.66 24.3775 16.4238 24.1413C16.415 24.1325 16.3975 24.115 16.3888 24.1063L9.94002 17.6575C9.64252 17.36 9.49377 16.9663 9.49377 16.5725C9.49377 16.1788 9.64252 15.785 9.94002 15.4875C10.535 14.8925 11.5063 14.8925 12.11 15.4875L15.9863 19.3638V5.16254C15.9863 4.32254 16.6775 3.63129 17.5175 3.63129C17.9375 3.63129 18.3225 3.80629 18.6025 4.07754C18.8825 4.35754 19.0488 4.73379 19.0488 5.16254V19.3638L22.925 15.4875C23.52 14.8925 24.4913 14.8925 25.095 15.4875C25.6638 16.0913 25.6638 17.0625 25.0688 17.6575Z" fill="#E4BEBE"/>
</svg>
