<svg width="100" height="100" viewBox="0 0 100 100" fill="none" xmlns="http://www.w3.org/2000/svg">
<path d="M62.8355 34.5052C60.6139 30.9099 58.496 27.2492 56.3 23.6386C56.0029 23.1488 55.5497 22.7139 55.08 22.3747C53.827 21.4664 52.3893 21.5781 51.2473 22.6163C50.9869 22.853 50.7776 23.1494 50.5196 23.4502C49.7236 22.0825 48.5365 21.547 47.0414 21.783C45.5499 22.0197 44.6014 22.9542 44.0731 24.4103C43.8127 23.962 43.5754 23.5911 43.3729 23.2013C42.1901 20.9138 39.27 20.9974 37.845 22.5346C37.5315 22.8719 37.2863 23.2726 36.9923 23.6661C36.9191 23.5514 36.8355 23.4337 36.7629 23.308C36.295 22.5077 35.8339 21.7025 35.3617 20.9034C34.7743 19.9097 33.9246 19.2826 32.754 19.2448C32.1897 19.2265 31.5944 19.2747 31.0527 19.4608C30.7367 19.57 30.4463 19.756 30.1846 19.9658C30.0206 20.0976 29.9016 20.28 29.7631 20.4343C29.4191 20.8156 29.122 21.367 28.9372 21.8831C28.6029 22.8176 28.8713 23.7125 29.3575 24.5378C30.1975 25.9664 31.0643 27.3804 31.903 28.809C34.1759 32.677 36.4396 36.5487 38.7051 40.4191C38.76 40.5131 38.804 40.6143 38.8515 40.7113C38.2287 40.2978 37.6797 39.8201 37.0923 39.3968C36.3621 38.871 35.732 38.2134 34.8072 37.9474C32.6789 37.3325 30.8703 38.5837 29.9858 40.1593C29.2733 41.4263 29.729 43.0909 30.9398 44.2585C33.6562 46.8797 36.37 49.5039 39.101 52.108C39.9526 52.9217 40.7395 53.7989 41.7893 54.4034C44.9894 56.2456 48.162 58.1305 51.337 60.0111C51.725 60.2405 52.091 60.5205 52.4234 60.8249C53.4525 61.7667 54.4572 62.7335 55.474 63.6888C56.2469 64.4153 56.8148 64.4849 57.7237 63.9481C61.599 61.6606 65.4719 59.3682 69.3473 57.0776C70.247 56.5457 70.4776 55.8942 70.1384 54.8798C68.553 50.1279 66.9707 45.3754 65.3871 40.6235C64.685 38.5245 64.0159 36.423 62.8355 34.5052ZM63.8682 40.7065C65.4414 45.4681 67.0378 50.2237 68.6159 54.9859C68.869 55.7491 68.9599 55.5502 68.2761 55.9565C64.5777 58.1567 60.8731 60.3478 57.1723 62.5432C57.0301 62.6274 56.8874 62.7085 56.7343 62.797C55.5155 61.6526 54.3266 60.5314 53.1286 59.4206C52.9206 59.226 52.6863 59.0498 52.4417 58.9046C49.4344 57.1289 46.4472 55.3233 43.404 53.611C42.0437 52.8442 40.9499 51.8017 39.8483 50.741C37.2619 48.2509 34.6669 45.7695 32.0982 43.2593C31.7633 42.9323 31.5053 42.4944 31.3174 42.0619C31.0142 41.3683 31.2613 40.5088 31.8981 40.0184C32.1732 39.8049 32.3367 39.7042 32.6277 39.52C33.4195 39.021 34.4058 39.1571 35.1311 39.7439C37.0661 41.3049 38.9973 42.8695 40.9335 44.4293C41.4404 44.838 42.1132 44.6837 42.2785 44.0804C42.3444 43.84 42.2706 43.5027 42.14 43.2764C40.6053 40.6168 39.0516 37.9669 37.4943 35.3183C35.2275 31.465 32.9638 27.6091 30.6781 23.7655C30.2524 23.0506 30.1755 22.3723 30.6434 21.6793C31.1564 20.9187 31.8945 20.5948 32.8034 20.7058C33.4719 20.7863 33.8569 21.2475 34.1741 21.794C36.9929 26.6472 39.8165 31.4961 42.6378 36.3474C42.7073 36.4657 42.7732 36.5853 42.8446 36.7018C43.2258 37.3087 43.8907 37.3502 44.3488 36.797C44.6075 36.4846 44.5776 36.1821 44.3751 35.835C42.7598 33.0802 41.1573 30.3182 39.5512 27.5573C39.2383 27.0181 38.9351 26.4727 38.6094 25.9414C38.1622 25.2137 38.1586 24.4945 38.6649 23.8125C39.2096 23.0787 39.9544 22.7712 40.8633 22.9365C41.4263 23.039 41.7978 23.3965 42.0797 23.8827C43.8871 27.0016 45.703 30.1156 47.5129 33.2321C47.702 33.5579 47.8783 33.8702 48.3322 33.8311C48.85 33.7872 49.2331 33.52 49.4247 33.0613C49.5003 32.8808 49.4405 32.5782 49.335 32.394C48.1656 30.3474 46.9731 28.3143 45.7891 26.2745C45.3047 25.4394 45.3407 24.6994 45.8867 24.0321C46.4594 23.333 47.4257 22.9817 48.2102 23.3074C48.5853 23.463 48.9684 23.7826 49.1764 24.1303C50.6898 26.663 52.1532 29.2256 53.6544 31.7651C53.8008 32.0158 54.082 32.2982 54.337 32.3397C54.5627 32.3763 54.9202 32.1555 55.0696 31.9426C55.1855 31.7773 55.1587 31.3997 55.0476 31.2008C54.0851 29.4922 53.0822 27.8056 52.108 26.1024C51.9379 25.8048 51.7896 25.4754 51.7225 25.1411C51.5798 24.4182 51.9013 23.8284 52.6101 23.402C53.2048 23.0439 53.7697 23.1879 54.2516 23.5966C54.6023 23.8949 54.9439 24.2432 55.1794 24.6348C57.2839 28.1252 59.3305 31.6504 61.4667 35.1207C62.547 36.8763 63.2296 38.7721 63.8682 40.7065Z" fill="#565454"/>
<path d="M23.3613 25.2361C22.1608 21.0954 24.5532 16.751 28.6939 15.5518C32.834 14.3519 37.1784 16.7443 38.3783 20.885L40.0399 20.4037C38.5747 15.3474 33.2689 12.4261 28.2126 13.8907C23.157 15.3559 20.2351 20.6617 21.7003 25.718C23.1106 30.5852 28.0797 33.462 32.9597 32.364L31.966 30.792C28.1754 31.3306 24.4563 29.0169 23.3613 25.2361Z" fill="#565454"/>
<path d="M9.58 77.136V86.676C9.58 86.916 9.484 87 9.232 87C9.004 87.012 8.14 87.024 7.264 86.988C7.408 87.24 7.576 87.66 7.636 87.912C8.752 87.924 9.496 87.9 9.928 87.756C10.348 87.6 10.528 87.336 10.528 86.676V77.136H9.58ZM12.448 80.16C13.468 81.876 14.428 84.108 14.716 85.524L15.652 85.128C15.352 83.7 14.344 81.516 13.288 79.836L12.448 80.16ZM6.448 79.92C6.16 81.528 5.5 83.592 4.432 84.852C4.672 84.948 5.056 85.164 5.272 85.32C6.352 83.988 7.048 81.84 7.432 80.1L6.448 79.92ZM23.596 86.112V79.224H27.904V78.312H18.424V79.224H22.624V86.112H17.8V87H28.504V86.112H23.596ZM33.592 79.98H39.052V81.108H33.592V79.98ZM33.592 81.792H39.052V82.944H33.592V81.792ZM33.592 78.168H39.052V79.296H33.592V78.168ZM32.716 77.46V83.652H39.964V77.46H32.716ZM31 84.468V85.296H41.572V84.468H31ZM37.276 86.28C38.632 86.772 40.024 87.42 40.852 87.912L41.704 87.3C40.78 86.808 39.292 86.172 37.912 85.68L37.276 86.28ZM34.516 85.62C33.712 86.184 32.164 86.844 30.94 87.216C31.144 87.408 31.408 87.72 31.552 87.9C32.776 87.504 34.312 86.844 35.332 86.196L34.516 85.62ZM45.388 79.056H53.488V80.784H54.412V78.228H49.852V76.956H48.928V78.228H44.488V80.784H45.388V79.056ZM51.52 82.368C51.196 83.568 50.644 84.48 49.852 85.176C48.916 84.828 47.968 84.504 47.08 84.24C47.404 83.664 47.752 83.016 48.088 82.368H51.52ZM54.712 82.368V81.528H48.52C48.82 80.928 49.12 80.34 49.372 79.8L48.46 79.596C48.184 80.184 47.848 80.844 47.512 81.528H44.14V82.368H47.068C46.516 83.424 45.94 84.456 45.484 85.212L46.396 85.452C46.492 85.296 46.588 85.128 46.696 84.948C47.452 85.176 48.256 85.464 49.048 85.776C47.872 86.484 46.336 86.892 44.416 87.132C44.596 87.324 44.872 87.732 44.956 87.936C47.056 87.6 48.736 87.072 50.008 86.16C51.4 86.748 52.66 87.372 53.488 87.936L54.136 87.192C53.296 86.664 52.084 86.076 50.764 85.536C51.568 84.744 52.168 83.712 52.54 82.368H54.712ZM64.18 81.336H61.852V82.104H67.492V81.336H65.056V79.392H67.744V78.612H65.056V76.956H64.18V78.612H61.588V79.392H64.18V81.336ZM60.244 80.856V82.836H61.084V76.956H60.244V78.576H58.648V77.124H57.88V79.56H58.648V79.284H60.244V80.148H57.268V80.856H58.132C58.012 81.6 57.724 82.164 56.992 82.5C57.172 82.632 57.4 82.908 57.496 83.088C58.456 82.62 58.804 81.864 58.96 80.856H60.244ZM66.604 84.24C66.076 84.636 65.224 85.128 64.516 85.488C64.06 85.056 63.664 84.576 63.352 84.036H67.912V83.328H63.016V82.392H62.14V83.328H57.22V84.036H61.252C60.136 84.72 58.492 85.272 57.052 85.536C57.22 85.704 57.448 86.004 57.556 86.196C58.3 86.04 59.104 85.8 59.86 85.488V86.844C59.308 86.916 58.804 86.988 58.372 87.036L58.504 87.792C59.872 87.6 61.84 87.312 63.688 87.036L63.664 86.316C62.656 86.46 61.636 86.604 60.7 86.736V85.116C61.372 84.792 61.972 84.432 62.464 84.036H62.5C63.472 86.016 65.224 87.36 67.564 87.96C67.672 87.744 67.9 87.408 68.092 87.228C66.94 86.976 65.92 86.544 65.08 85.944C65.8 85.608 66.616 85.164 67.264 84.708L66.604 84.24ZM77.416 80.016H79.504C79.288 81.492 78.964 82.752 78.46 83.808C77.98 82.692 77.644 81.396 77.416 80.028V80.016ZM73.12 80.16V78.972H74.62C74.38 79.392 74.116 79.788 73.828 80.16H73.12ZM81.184 80.016V79.176H77.68C77.872 78.516 78.028 77.808 78.16 77.1L77.26 76.956C76.924 78.936 76.312 80.856 75.4 82.104L74.968 81.792L74.812 81.84H73.504C73.768 81.552 74.02 81.264 74.272 80.952H76.012V80.16H74.86C75.412 79.344 75.892 78.444 76.288 77.472L75.448 77.232C75.208 77.844 74.932 78.42 74.62 78.96V78.216H73.12V76.956H72.304V78.216H70.72V78.972H72.304V80.16H70.24V80.952H73.18C72.892 81.264 72.604 81.564 72.28 81.84H71.212V82.548H71.404C70.96 82.872 70.492 83.16 70 83.412C70.18 83.58 70.504 83.904 70.636 84.084C71.392 83.652 72.112 83.136 72.772 82.548H74.152C73.864 82.86 73.516 83.184 73.168 83.436H72.772V84.504C71.788 84.6 70.888 84.696 70.18 84.756L70.288 85.56C70.996 85.488 71.848 85.404 72.772 85.296V86.964C72.772 87.096 72.724 87.132 72.568 87.144C72.412 87.144 71.896 87.144 71.296 87.132C71.428 87.348 71.548 87.684 71.584 87.912C72.352 87.912 72.856 87.9 73.192 87.78C73.516 87.648 73.612 87.42 73.612 86.964V85.212L76.06 84.936V84.168C75.244 84.252 74.416 84.336 73.612 84.42V83.928C74.236 83.484 74.908 82.872 75.4 82.272C75.604 82.416 75.904 82.68 76.036 82.824C76.336 82.416 76.612 81.948 76.852 81.42C77.116 82.644 77.476 83.772 77.932 84.744C77.248 85.776 76.336 86.568 75.088 87.156C75.268 87.336 75.52 87.744 75.616 87.948C76.792 87.336 77.704 86.58 78.412 85.632C79 86.604 79.732 87.384 80.656 87.924C80.776 87.684 81.064 87.336 81.28 87.168C80.308 86.664 79.54 85.836 78.952 84.804C79.684 83.52 80.128 81.936 80.428 80.016H81.184ZM89.524 79.044C89.368 79.26 89.164 79.476 88.936 79.68C88.672 79.512 88.396 79.356 88.144 79.224L87.7 79.596C87.94 79.728 88.192 79.896 88.444 80.052C88.084 80.316 87.7 80.544 87.316 80.724C87.472 80.82 87.724 81.048 87.832 81.168C88.204 80.964 88.588 80.712 88.96 80.424C89.26 80.64 89.512 80.856 89.692 81.048L90.16 80.616C89.98 80.436 89.728 80.22 89.44 80.016C89.704 79.764 89.956 79.5 90.148 79.236L89.524 79.044ZM90.04 78.516C89.872 78.348 89.632 78.168 89.356 77.976C89.608 77.748 89.836 77.508 90.016 77.268L89.392 77.088C89.248 77.28 89.068 77.472 88.864 77.652C88.588 77.484 88.312 77.328 88.06 77.208L87.616 77.58C87.856 77.712 88.12 77.868 88.372 78.024C88.036 78.264 87.664 78.48 87.292 78.66C87.424 78.768 87.688 78.972 87.796 79.092C88.144 78.9 88.528 78.648 88.888 78.372C89.164 78.576 89.404 78.78 89.572 78.96L90.04 78.516ZM84.628 81.912H93.064V83.4H93.94V81.228H93.004C93.112 80.16 93.22 78.612 93.268 77.412H90.484V78.024H92.404L92.368 78.684H90.532V79.296H92.332L92.272 79.944H90.472V80.556H92.224C92.2 80.796 92.176 81.024 92.152 81.228H85.564L85.528 80.556H87.232V79.944H85.492L85.444 79.296H87.184V78.684H85.408L85.372 78.156C85.996 78.012 86.728 77.808 87.28 77.568L86.812 77.064C86.392 77.232 85.708 77.472 85.12 77.64L84.496 77.484L84.736 81.228H83.788V83.4H84.628V81.912ZM94.06 84.828H89.272V84.684C90.208 84.276 91.252 83.712 91.984 83.124L91.456 82.68L91.264 82.728H85.732V83.4H90.364C89.932 83.676 89.416 83.952 88.924 84.168H88.408V84.828H83.632V85.56H88.408V86.964C88.408 87.12 88.348 87.156 88.156 87.168C87.964 87.18 87.292 87.192 86.56 87.168C86.68 87.372 86.812 87.684 86.86 87.912C87.808 87.912 88.42 87.912 88.792 87.78C89.164 87.672 89.272 87.444 89.272 86.988V85.56H94.06V84.828Z" fill="#565454"/>
</svg>
