<svg height='100px' width='100px'  fill="#000000" xmlns="http://www.w3.org/2000/svg" data-name="Layer 1" viewBox="0 0 64 64" x="0px" y="0px"><path d="M44,6.82a15.11,15.11,0,0,0-12,5.83A15.11,15.11,0,0,0,20,6.82,15.32,15.32,0,0,0,4.72,22.13C4.72,41.86,30,56.15,31,56.75a2,2,0,0,0,1.94,0c1.08-.6,26.31-14.89,26.31-34.62A15.32,15.32,0,0,0,44,6.82ZM32,52.67C27.47,49.9,8.72,37.49,8.72,22.13A11.28,11.28,0,0,1,30.2,17.29a2,2,0,0,0,3.6,0,11.28,11.28,0,0,1,21.48,4.84C55.28,37.49,36.53,49.9,32,52.67Z"></path></svg>