<svg width="35" height="35" viewBox="0 0 35 35" fill="none" xmlns="http://www.w3.org/2000/svg">
<path d="M18.9583 5.71489V10.9375H27.7155C29.3224 10.9375 30.625 12.242 30.625 13.8455V31.3628C30.625 32.9689 29.3233 34.2709 27.7155 34.2709H7.28451C5.67763 34.2709 4.375 32.9664 4.375 31.3628V13.8455C4.375 12.2395 5.67674 10.9375 7.28451 10.9375H16.0417V5.71017L14.3945 7.3573C13.8303 7.92156 12.9151 7.92127 12.3417 7.34779C11.7721 6.77827 11.7755 5.85155 12.3321 5.2949L16.476 1.15109C16.7565 0.870523 17.1238 0.729533 17.4928 0.729187L17.5039 0.733541C17.8743 0.734331 18.2425 0.874318 18.5193 1.15109L22.6631 5.2949C23.2274 5.85917 23.2271 6.7743 22.6536 7.34779C22.0841 7.9173 21.1574 7.91394 20.6007 7.3573L18.9583 5.71489ZM16.0417 13.8542H7.29167V31.3542H27.7083V13.8542H18.9583V19.6897C18.9583 20.4939 18.311 21.1459 17.5 21.1459C16.6946 21.1459 16.0417 20.4933 16.0417 19.6897V13.8542ZM11.6667 10.9375V13.8542H23.3333V10.9375H11.6667ZM16.0417 10.9375H18.9583V13.8542H16.0417V10.9375Z" fill="#E4BEBE"/>
</svg>
