<svg width="100" height="100" viewBox="0 0 100 100" fill="none" xmlns="http://www.w3.org/2000/svg">
<path d="M15.5898 8.61994V98.2674C15.5898 98.957 16.0036 99.5777 16.6242 99.8533C17.2103 100.129 17.9689 99.9914 18.4515 99.5432L32.8297 86.7166L48.9317 99.6122C49.5523 100.129 50.4488 100.129 51.0694 99.6122L67.1714 86.7166L81.5497 99.5432C81.8598 99.8533 82.2736 99.9914 82.6873 99.9914C82.9287 99.9914 83.1701 99.9569 83.377 99.8533C83.9976 99.5777 84.4113 98.957 84.4113 98.2674V8.61994C84.4114 3.86172 80.5497 0 75.7914 0H24.2098C19.4516 0 15.5898 3.86172 15.5898 8.61994Z" fill="black"/>
</svg>
