<svg height='100px' width='100px'  fill="#000000" xmlns="http://www.w3.org/2000/svg" xmlns:xlink="http://www.w3.org/1999/xlink" version="1.1" x="0px" y="0px" viewBox="0 0 32 32" style="enable-background:new 0 0 32 32;" xml:space="preserve"><path d="M11.10459,0C8.16405,0,5.77142,2.39263,5.77142,5.33317v25.59921c0,0.38332,0.2052,0.73643,0.538,0.92601  c0.33228,0.18958,0.74112,0.18645,1.07184-0.00833l8.61849-5.09672l8.61849,5.09672  c0.67464,0.42755,1.63593-0.11568,1.60983-0.91771c0.00002,0.00003,0.00002-25.59918,0.00002-25.59918  C26.22808,2.39263,23.83545,0,20.89491,0H11.10459z M24.09481,5.33317v23.72948l-7.55185-4.46653  c-0.33524-0.19847-0.75119-0.19844-1.08642,0c0,0-7.55185,4.46653-7.55185,4.46653V5.33317c0-1.76453,1.43537-3.1999,3.1999-3.1999  h9.79033C22.65944,2.13327,24.09481,3.56864,24.09481,5.33317z"></path></svg>