<svg width="32" height="32" viewBox="0 0 32 32" fill="none" xmlns="http://www.w3.org/2000/svg">
<path d="M11.1047 0C8.16411 0 5.77148 2.39263 5.77148 5.33317V30.9324C5.77148 31.3157 5.97668 31.6688 6.30948 31.8584C6.64176 32.048 7.0506 32.0448 7.38132 31.8501L15.9998 26.7533L24.6183 31.8501C25.2929 32.2776 26.2542 31.7344 26.2281 30.9324C26.2282 30.9324 26.2282 5.33317 26.2282 5.33317C26.2281 2.39263 23.8355 0 20.895 0H11.1047ZM24.0949 5.33317V29.0627L16.543 24.5961C16.2078 24.3977 15.7918 24.3977 15.4566 24.5961L7.90475 29.0627V5.33317C7.90475 3.56864 9.34012 2.13327 11.1047 2.13327H20.895C22.6595 2.13327 24.0949 3.56864 24.0949 5.33317Z" fill="#4F4F4F"/>
</svg>
