<svg height='100px' width='100px'  fill="#000000" xmlns="http://www.w3.org/2000/svg" data-name="Слой 1" viewBox="0 0 100 100" x="0px" y="0px"><title>мак</title><path d="M50.75528,10.77347a6.55275,6.55275,0,0,1,4.66863-2.83574,0.62685,0.62685,0,0,1,.41061.03659,32.12676,32.12676,0,0,0,2.95115,1.7858,5.25923,5.25923,0,0,0,2.55762.61732c2.65169-.26116,4.37358,1.57181,3.59,4.16581a15.99815,15.99815,0,0,0-.87531,6.848c0.05425,0.40811-.70416.92421-1.265,1.29407,0.83363-1.03779.32682-2.11354,0.3536-3.1663a18.47826,18.47826,0,0,1,.66837-3.5639c0.24434-1.06876.80106-2.07418,0.35358-3.2407-0.52246-1.36184-1.05508-1.74783-2.51514-1.64373-0.77446.05523-1.55,0.09435-2.3251,0.14072l-0.127.30638a6.30047,6.30047,0,0,0,1.40442.53133,3.65061,3.65061,0,0,0,1.22644-.245,1.51269,1.51269,0,0,1,2.10933,1.48037,7.99261,7.99261,0,0,1-.43046,2.223c-0.31149,1.15856-1.2125,2.4875-.89387,3.40883,0.46715,1.35085-.40808,2.38606-0.18614,3.57278a2.12243,2.12243,0,0,1-.70016.48434,1.06131,1.06131,0,0,1-.1391-0.25469c0.76979-2.42784-.4-5.20355,1.36159-7.47252a2.56539,2.56539,0,0,0,.33-1.40845,1.03817,1.03817,0,0,0-1.22254-1.28992,7.92626,7.92626,0,0,0-.92212.15014,2.45006,2.45006,0,0,1-2.56472-.7503c-1.95047-2.13-3.78506-2.091-6.29081-1.26422a8.29816,8.29816,0,0,0-1.65741,1.07418v3.10307a0.42773,0.42773,0,0,0,.004.20488c1.43913,0.85957-.06483,1.50368-0.11239,2.36007l1.74123-1.04347L52.181,17.42209l1.76138-.41864,0.14534,0.2512-1.22393,1.13619c0.46888,0.05468.94615,0.11032,1.743,0.2032l-1.12571,1.10522c0.027,0.0024.23678,0.02591,0.44718,0.03881,0.80852,0.04957.84179,0.42849,0.48449,1.0436-0.58545,1.00785-.503,1.03833.67923,1.27573,1.75545,0.35247,3.48065.85394,5.23269,1.22615a3.41659,3.41659,0,0,0,1.70683-.00991,0.96151,0.96151,0,0,1,1.46693.62455,1.68184,1.68184,0,0,1-1.195,1.751,3.61511,3.61511,0,0,1-1.36055.06568c-1.35826-.38078-2.21831.42-3.28841,1.031-2.85847,1.63227-5.83581,3.051-9.28472,2.90038a1.1473,1.1473,0,0,0-.85629.49825,30.018,30.018,0,0,0-3.44436,8.76381c-0.98447,4.62538-2.0828,9.22952-2.93682,13.87867-0.71717,3.904-1.15343,7.85962-1.7163,11.79207a31.40751,31.40751,0,0,0-.43327,4.59082c0.67742-1.85338,1.37774-3.69879,2.026-5.56232,0.6959-2.00043,1.31658-4.0271,2.01744-6.02575,1.09149-3.11259,2.08371-6.27045,3.37342-9.30038,1.547-3.6343,3.24692-7.21559,5.09774-10.70465a21.96871,21.96871,0,0,1,6.29081-6.84651c1.66239-1.2852,3.0689-1.53408,4.61119.19205l0.77905-.71226,0.38083,0.88553a14.9434,14.9434,0,0,1,2.45081.3911c1.20644,0.3952,1.57779,1.58079,2.13408,2.58214a4.95822,4.95822,0,0,1,.0048,4.4036,42.92309,42.92309,0,0,1-2.1819,4.83483,19.863,19.863,0,0,1-2.045,2.75086,1.05323,1.05323,0,0,1-1.84154-.36052c-0.57993-1.849-1.09178-3.72656-1.49753-5.62113-0.52292-2.44157.185-4.73372,1.0654-6.99025a1.62709,1.62709,0,0,0,.07427-1.27521,1.61469,1.61469,0,0,0-2.08107-.431c-2.90464,1.97676-5.64985,4.06873-7.26427,7.3741-1.81767,3.72148-3.93172,7.29872-5.731,11.02835a52.4,52.4,0,0,0-2.35666,6.426c-1.70278,5.17057-3.3912,10.34659-5.00618,15.545a17.61455,17.61455,0,0,0-.32473,9.004,13.34344,13.34344,0,0,1,.11582,1.65991,45.31838,45.31838,0,0,0,1.91341-4.95377c0.1849-.7006-0.32356-1.57957-0.5006-2.38118a12.3263,12.3263,0,0,1,1.04323-7.85418,78.42771,78.42771,0,0,0,2.9823-8.0427,2.9499,2.9499,0,0,1,.75846-0.76155,2.78368,2.78368,0,0,0,.46367-0.6239c0.39559-.79159.76481-1.59632,1.188-2.48872a1.44265,1.44265,0,0,1,.42318,1.83472,12.736,12.736,0,0,1-.80241,1.80768c-0.37389.77851-.92734,1.52538-0.18444,2.40472a0.85329,0.85329,0,0,1,.019.61822c-0.54671,2.363-1.10793,4.72264-1.66066,7.08426-0.014.06005,0.026,0.13278,0.29631,0.28852q1.00781-2.9461,2.01467-5.89254c0.78-2.29816,1.2756-4.70424,2.76255-6.72452a9.83129,9.83129,0,0,0,.86759-1.92l0.2632,0.05616v2.28727l1.64778-2.1163L53.08087,55.296v2.25282l3.25974-2.352L56.59434,55.277a2.6899,2.6899,0,0,1-.2255.88107,12.407,12.407,0,0,1-1.486,1.89336c-0.625.61108-.52829,0.98091,0.19012,1.33851a2.76661,2.76661,0,0,1,.44269.28532c0.59988,0.45944.56589,0.94607-.11951,1.23462a11.24494,11.24494,0,0,1-1.1061.27138c-0.39342.11933-.77417,0.28031-1.39818,0.511,0.45569,0.37174.69053,0.55025,0.90956,0.74641,0.14965,0.134.27729,0.29262,0.41479,0.44021a2.5435,2.5435,0,0,1-.44612.31879c-1.48861.6431-3.09306,1.0124-4.22625,2.36838a18.20857,18.20857,0,0,1-3.07187,2.98227c-1.35622,1.003-1.64285,2.52208-2.28781,3.87515-0.56318,1.18148-1.06267,2.39328-1.60868,3.6335,1.70278-1.54172,3.37324-3.05417,5.23973-4.74414l0.36774,1.16589a1.13455,1.13455,0,0,0,.23657-0.11223c1.47124-1.133,2.93037-2.282,4.41864-3.39205a1.0359,1.0359,0,0,1,.865-0.20568,1.171,1.171,0,0,1,.47766.90966,8.04172,8.04172,0,0,1-.59853,1.61627,1.61948,1.61948,0,0,1,.5975-0.03409,1.76159,1.76159,0,0,1,.888.44217,0.85926,0.85926,0,0,1-.08421.80416,2.953,2.953,0,0,1-.90814.67763c-1.12865.6326-2.27086,1.24109-3.57058,1.94719,0.40176,0.29494.7663,0.52078,1.07921,0.80372,0.33223,0.30042.61546,0.65508,0.92008,0.986a3.69328,3.69328,0,0,1-1.217.65913,19.26555,19.26555,0,0,1-4.0871.15154,5.61033,5.61033,0,0,0-5.1506,1.92732,1.69445,1.69445,0,0,1-.31172.27223,1.287,1.287,0,0,1-.3982.00526l0.6118-2.38624-0.31894-.09492C41.0354,79.28907,40.47,81.13332,39.83423,82.953c-0.94174,2.69538.17081,5.204,0.616,7.7788a3.833,3.833,0,0,1-.11745,1.537c-0.49711-.38168-1.2244-0.40207-0.97714-1.44582a7.63433,7.63433,0,0,0-.38276-2.43734c-0.35869-2.72918-.74357-5.45677-1.01332-8.19527a51.94591,51.94591,0,0,1-.40573-6.92168c0.10792-2.99752.48086-5.99078,0.85185-8.97194,0.32684-2.62665.7717-5.24046,1.22964-7.8485,0.60726-3.45882,1.11126-6.948,1.9596-10.3494,1.35039-5.4145,2.93011-10.77247,4.466-16.13915a1.01686,1.01686,0,0,0-.41079-1.33784c-0.73621-.45763-1.5253-0.8303-2.26087-1.28886q-3.76606-2.34776-7.50251-4.74249a3.82445,3.82445,0,0,1-.77534-0.853,2.62227,2.62227,0,0,0-2.37452-1.22109A2.02679,2.02679,0,0,1,31.43837,19.413a0.96172,0.96172,0,0,1,.63766-1.33217c0.96827-.45461,1.88342-1.02233,2.9497-1.61323-0.6207-2.37339,1.0797-3.46031,3.004-4.33743,0.97472-.44429,2.06941-0.63582,3.02168-1.11637,1.14509-.57786,2.1955-1.34308,3.28872-2.02425a10.92947,10.92947,0,0,1,1.77462-1.06891A3.6892,3.6892,0,0,1,50.75528,10.77347ZM45.9931,20.00054c0.61428-1.5493-.99735-1.47315-1.48528-2.11625,0.39866-.593.751-1.11717,1.18662-1.7652,0.50483,0.43394,1.08734.93461,1.70734,1.46752,0.17644-.78452-0.63611-1.60548.31647-2.33248,0.15043,0.64831.27732,1.19524,0.43371,1.86915,0.29247-.69967.52277-1.25067,0.78112-1.86874l0.88834,0.70976c0-.91663-0.02137-1.59.00583-2.26144,0.02955-.72816.14676-1.45421,0.15161-2.18167,0.0168-2.52162-.50338-2.4218-2.38495-2.358a3.3713,3.3713,0,0,0-1.63947.39541c-1.88941,1.20582-3.64855,2.63424-5.60374,3.71208-1.26615.698-2.39847,1.32365-2.72782,2.62985a20.72807,20.72807,0,0,1,4.67292,1.10556A20.27839,20.27839,0,0,1,45.9931,20.00054Zm-11.32143.236c3.42142,3.90488,8.0259,5.88694,12.28131,8.4004l0.793-.85977a6.34924,6.34924,0,0,1-.282-1.04419c-0.24258-2.93058-2.4121-4.25092-4.6613-5.37718-1.37774-.68989-2.95257-0.9743-4.39846-1.54352A4.15877,4.15877,0,0,0,34.67166,20.23657Zm29.43513,13.602a41.22576,41.22576,0,0,1,.62408,5.6602,39.53362,39.53362,0,0,1-.84762,5.421A17.98056,17.98056,0,0,0,67.66308,38.627c0.79528-2.41117.03009-4.18548-1.3845-5.912a2.64642,2.64642,0,0,0-2.97548-.47461c-1.90484,1.66112-2.01772,3.95564-2.40167,6.45445C62.01537,37.00718,62.95958,35.57664,64.10679,33.83859ZM31.76292,19.37635a3.80018,3.80018,0,0,0,1.265.4087,6.99323,6.99323,0,0,0,1.8899-.52767,5.12471,5.12471,0,0,1,4.40195.08707c1.513,0.66855,3.12733,1.10754,4.64055,1.77552a10.44023,10.44023,0,0,1,1.72432,1.35521,4.5673,4.5673,0,0,1,2.20451,3.56111,2.44994,2.44994,0,0,0,.358.66684c0.08717-2.73055-.09977-5.01632-2.79326-6.22893a6.93512,6.93512,0,0,1-1.58546-1.51132,14.5921,14.5921,0,0,0-1.1413-1.04006A6.28233,6.28233,0,0,0,38.42,16.96743,9.495,9.495,0,0,0,31.76292,19.37635ZM41.616,76.37387c0.30958-.67337.96638-1.40564,0.86408-2.0092a15.98473,15.98473,0,0,1,.418-5.38492,3.52191,3.52191,0,0,1,.33956-0.78968l0.2638,0.06764c-0.18263,1.16958-.36527,2.33917-0.58011,3.71492,1.46045-1.92466,3.15138-9.55646,2.4763-10.75521-0.04286.13951-.08405,0.27089-0.12354,0.40279-0.04978.1663-.09239,0.33492-0.148,0.49918-0.25605.75593-.56679,0.74068-1.04814-0.20916-0.46181,2.07581-.89288,4.01335-1.34355,6.039l-0.69714-.48256C40.91117,70.37532,40.41055,73.2802,41.616,76.37387Zm7.1943-47.48619a16.87872,16.87872,0,0,0,9.67412-3.46519A8.532,8.532,0,0,0,48.81028,28.88768Zm-6.542,48.86447c2.23713-1.293,4.34907-2.50988,6.45693-3.73376a23.46529,23.46529,0,0,0,2.68689-1.62373,15.35349,15.35349,0,0,0,2.16015-2.18936,1.9345,1.9345,0,0,0,.06986-0.96274l-0.35719-.20106c-1.82564,1.52873-3.65128,3.05744-5.52523,4.62662L47.28,72.53568A19.74094,19.74094,0,0,0,42.26824,77.75216Zm6.3247-55.39867c0.1449,1.42022.28088,2.75311,0.38857,3.8087l6.425-3.21437C53.06275,22.4124,50.8831,21.60623,48.59294,22.35349Zm-4.3181,55.0557c2.41248-.13288,4.88641-0.26916,7.65942-0.42194-0.77-.57988-1.30571-0.93895-1.78863-1.35882a0.68468,0.68468,0,0,1,.1854-1.25353c0.99567-.51887,2.02621-0.97056,3.03966-1.45555,0.4126-.1975.81869-0.40852,1.33245-0.66579C53.40652,71.82284,45.91341,75.65173,44.27484,77.40919Zm5.86129-19.87268c-1.60889,2.50758-2.21718,5.3801-2.97288,8.21411,1.853-2.46227,3.706-4.9245,5.42172-7.20426-0.15368-.74623-0.273-1.32574-0.44718-2.17122-0.69745,1.33738-1.2797,2.45383-1.862,3.5703l-0.30073-.10049Q50.05563,58.69072,50.13612,57.53651Zm2.6594,5.37862L52.535,62.76636a4.06056,4.06056,0,0,1,.57144-1.768,5.27478,5.27478,0,0,1,1.93248-.674c-1.59836-1.5677-1.59836-1.5677-.31734-3.0584a4.23579,4.23579,0,0,0-1.33366.87681c-0.497.61559-.79438,1.3886-1.265,2.02982-1.45235,1.97867-2.94666,3.92654-4.42471,5.88637l0.49918,0.45753a13.61238,13.61238,0,0,1,1.91-2.27568A13.94517,13.94517,0,0,1,52.79553,62.91513ZM36.06809,16.76836c0.22991-.35445.41283-0.61428,0.572-0.88783a3.03413,3.03413,0,0,1,.48442-0.87645c1.04943-.83466,2.1092-1.66613,3.23112-2.3977,1.7372-1.13278,3.5326-2.176,5.28858-3.28067A1.45235,1.45235,0,0,0,45.952,8.7653a7.9215,7.9215,0,0,0-1.85916.97335,34.03278,34.03278,0,0,1-3.05737,1.92613c-1.22471.613-2.60492,0.92705-3.79988,1.58479C35.55895,14.17244,35.21531,15.26995,36.06809,16.76836ZM63.79252,36.3655c-1.51044,2.66521-1.089,5.40644-.94656,8.37973A10.90735,10.90735,0,0,0,63.79252,36.3655ZM54.22085,24.21417c1.91756,0.19887,3.61319.37528,5.30895,0.55025a20.55876,20.55876,0,0,0,2.47308.21616,2.14165,2.14165,0,0,0,.852-0.63634,1.93112,1.93112,0,0,0-.93252-0.34091c-1.02019.36377-1.88458-.11587-2.82764-0.29964A7.40022,7.40022,0,0,0,54.22085,24.21417Zm4.05048-13.64829c-1.78174-1.84559-3.23-2.82647-5.83816-.65082C54.59825,9.293,56.528,9.17307,58.27134,10.56588ZM61.539,41.70242c0.42976-1.49671.85954-2.99344,1.33648-4.65431C61.2391,38.36311,61.39108,40.0231,61.539,41.70242Zm-11.26-20.278,0.07043-.35211-3.3726-.67159C47.84552,22.29658,49.21681,21.107,50.279,21.4244Zm-1.39666-3.4832L49.11712,18.08A6.02624,6.02624,0,0,0,49.932,16.9816a1.56367,1.56367,0,0,0-.24269-0.78339,1.60224,1.60224,0,0,0-.52989.46581A8.51532,8.51532,0,0,0,48.88238,17.94119Zm3.49389,3.51724,0.20772-.87676,1.31534,0.12289L53.8815,20.3687c-0.85337.25592-1.91176-.38935-2.62975,0.77087Z"></path></svg>