<svg width="48" height="48" viewBox="0 0 48 48" fill="none" xmlns="http://www.w3.org/2000/svg">
<circle cx="24" cy="24" r="24" fill="#C3EEEE"/>
<path d="M18.8999 13.2C17.9131 13.2 17.0999 14.0132 17.0999 15V31.8C17.0988 31.8795 17.1135 31.9585 17.1431 32.0322C17.1728 32.106 17.2168 32.1732 17.2726 32.2298C17.3284 32.2864 17.395 32.3314 17.4683 32.3621C17.5417 32.3927 17.6204 32.4086 17.6999 32.4086C17.7794 32.4086 17.8582 32.3927 17.9315 32.3621C18.0049 32.3314 18.0714 32.2864 18.1272 32.2298C18.183 32.1732 18.2271 32.106 18.2567 32.0322C18.2864 31.9585 18.301 31.8795 18.2999 31.8V15C18.2999 14.6572 18.5571 14.4 18.8999 14.4H29.0999C29.1794 14.4011 29.2584 14.3864 29.3321 14.3568C29.4059 14.3271 29.4731 14.2831 29.5297 14.2273C29.5863 14.1715 29.6313 14.105 29.662 14.0316C29.6927 13.9582 29.7085 13.8795 29.7085 13.8C29.7085 13.7205 29.6927 13.6418 29.662 13.5684C29.6313 13.4951 29.5863 13.4285 29.5297 13.3727C29.4731 13.3169 29.4059 13.2729 29.3321 13.2432C29.2584 13.2136 29.1794 13.1989 29.0999 13.2H18.8999ZM30.2343 14.9906C30.0852 15.007 29.9476 15.0787 29.8487 15.1915C29.7498 15.3043 29.6967 15.45 29.6999 15.6V33.2063L24.2812 30.3656C24.1945 30.3197 24.098 30.2956 23.9999 30.2956C23.9019 30.2956 23.8053 30.3197 23.7187 30.3656L17.4187 33.6656C17.3485 33.7026 17.2862 33.753 17.2355 33.8139C17.1848 33.8749 17.1466 33.9453 17.1231 34.021C17.0996 34.0968 17.0912 34.1764 17.0985 34.2554C17.1058 34.3344 17.1285 34.4111 17.1654 34.4813C17.2024 34.5515 17.2528 34.6137 17.3138 34.6644C17.3748 34.7151 17.4451 34.7533 17.5209 34.7768C17.5966 34.8003 17.6763 34.8087 17.7552 34.8014C17.8342 34.7941 17.911 34.7713 17.9812 34.7344L23.9999 31.5844L30.0187 34.7344C30.1104 34.7831 30.2132 34.8071 30.3171 34.8041C30.4209 34.8011 30.5222 34.7712 30.611 34.7174C30.6998 34.6635 30.7731 34.5875 30.8238 34.4969C30.8744 34.4062 30.9007 34.3039 30.8999 34.2V15.6C30.9012 15.5196 30.8863 15.4398 30.8561 15.3653C30.8259 15.2908 30.7811 15.2232 30.7242 15.1663C30.6674 15.1095 30.5997 15.0646 30.5252 15.0345C30.4507 15.0043 30.3709 14.9894 30.2905 14.9906C30.2718 14.9898 30.253 14.9898 30.2343 14.9906V14.9906Z" fill="white"/>
</svg>
