<?xml version="1.0" encoding="UTF-8"?>
<svg width="1200pt" height="1200pt" version="1.1" viewBox="0 0 1200 1200" xmlns="http://www.w3.org/2000/svg">
 <path d="m1147.2 307.2s-37.199-177.6-198-240c-75.598-30-213.6-43.199-349.2-44.398-135.6 1.1992-273.6 14.398-349.2 43.199-160.8 62.398-198 240-198 240-24 100.8-32.398 202.8-31.199 292.8-1.1992 90 6 193.2 31.199 292.8 0 0 37.199 177.6 198 240 75.602 28.801 213.6 43.199 349.2 44.398 135.6-1.1992 273.6-14.398 349.2-44.398 160.8-62.398 198-240 198-240 24-100.8 32.398-202.8 31.199-292.8 1.2031-88.801-6-192-31.199-291.6zm-302.4 534h-489.6v-73.199h490.8v73.199zm0-208.8h-489.6v-73.199h490.8v73.199zm0-200.4h-489.6v-73.199h490.8v73.199z" fill="#2d3042"/>
</svg>
