<svg width="100" height="100" viewBox="0 0 100 100" fill="none" xmlns="http://www.w3.org/2000/svg">
<path d="M62.8356 34.5052C60.614 30.9099 58.4961 27.2492 56.3001 23.6386C56.003 23.1488 55.5498 22.7139 55.0801 22.3747C53.8271 21.4664 52.3894 21.5781 51.2474 22.6163C50.987 22.853 50.7777 23.1494 50.5197 23.4502C49.7237 22.0825 48.5366 21.547 47.0415 21.783C45.55 22.0197 44.6015 22.9542 44.0732 24.4103C43.8128 23.962 43.5755 23.5911 43.373 23.2013C42.1902 20.9138 39.2701 20.9974 37.8451 22.5346C37.5316 22.8719 37.2864 23.2726 36.9924 23.6661C36.9192 23.5514 36.8356 23.4337 36.763 23.308C36.2951 22.5077 35.834 21.7025 35.3618 20.9034C34.7744 19.9097 33.9247 19.2826 32.7541 19.2448C32.1898 19.2265 31.5945 19.2747 31.0528 19.4608C30.7368 19.57 30.4464 19.756 30.1847 19.9658C30.0207 20.0976 29.9017 20.28 29.7632 20.4343C29.4192 20.8156 29.1221 21.367 28.9373 21.8831C28.603 22.8176 28.8714 23.7125 29.3576 24.5378C30.1976 25.9664 31.0644 27.3804 31.9031 28.809C34.176 32.677 36.4397 36.5487 38.7052 40.4191C38.7601 40.5131 38.8041 40.6143 38.8516 40.7113C38.2288 40.2978 37.6798 39.8201 37.0924 39.3968C36.3622 38.871 35.7321 38.2134 34.8073 37.9474C32.679 37.3325 30.8704 38.5837 29.9859 40.1593C29.2734 41.4263 29.7291 43.0909 30.9399 44.2585C33.6563 46.8797 36.3701 49.5039 39.1011 52.108C39.9527 52.9217 40.7396 53.7989 41.7894 54.4034C44.9895 56.2456 48.1621 58.1305 51.3371 60.0111C51.7251 60.2405 52.0911 60.5205 52.4235 60.8249C53.4526 61.7667 54.4573 62.7335 55.4741 63.6888C56.247 64.4153 56.8149 64.4849 57.7238 63.9481C61.5991 61.6606 65.472 59.3682 69.3474 57.0776C70.2471 56.5457 70.4777 55.8942 70.1385 54.8798C68.5531 50.1279 66.9708 45.3754 65.3872 40.6235C64.6851 38.5245 64.016 36.423 62.8356 34.5052ZM63.8683 40.7065C65.4415 45.4681 67.0379 50.2237 68.616 54.9859C68.8691 55.7491 68.96 55.5502 68.2762 55.9565C64.5778 58.1567 60.8732 60.3478 57.1724 62.5432C57.0302 62.6274 56.8875 62.7085 56.7344 62.797C55.5156 61.6526 54.3267 60.5314 53.1287 59.4206C52.9207 59.226 52.6864 59.0498 52.4418 58.9046C49.4345 57.1289 46.4473 55.3233 43.4041 53.611C42.0438 52.8442 40.95 51.8017 39.8484 50.741C37.262 48.2509 34.667 45.7695 32.0983 43.2593C31.7634 42.9323 31.5054 42.4944 31.3175 42.0619C31.0143 41.3683 31.2614 40.5088 31.8982 40.0184C32.1733 39.8049 32.3368 39.7042 32.6278 39.52C33.4196 39.021 34.4059 39.1571 35.1312 39.7439C37.0662 41.3049 38.9974 42.8695 40.9336 44.4293C41.4405 44.838 42.1133 44.6837 42.2786 44.0804C42.3445 43.84 42.2707 43.5027 42.1401 43.2764C40.6054 40.6168 39.0517 37.9669 37.4944 35.3183C35.2276 31.465 32.9639 27.6091 30.6782 23.7655C30.2525 23.0506 30.1756 22.3723 30.6435 21.6793C31.1565 20.9187 31.8946 20.5948 32.8035 20.7058C33.472 20.7863 33.857 21.2475 34.1742 21.794C36.993 26.6472 39.8166 31.4961 42.6379 36.3474C42.7074 36.4657 42.7733 36.5853 42.8447 36.7018C43.2259 37.3087 43.8908 37.3502 44.3489 36.797C44.6076 36.4846 44.5777 36.1821 44.3752 35.835C42.7599 33.0802 41.1574 30.3182 39.5513 27.5573C39.2384 27.0181 38.9352 26.4727 38.6095 25.9414C38.1623 25.2137 38.1587 24.4945 38.665 23.8125C39.2097 23.0787 39.9545 22.7712 40.8634 22.9365C41.4264 23.039 41.7979 23.3965 42.0798 23.8827C43.8872 27.0016 45.7031 30.1156 47.513 33.2321C47.7021 33.5579 47.8784 33.8702 48.3323 33.8311C48.8501 33.7872 49.2332 33.52 49.4248 33.0613C49.5004 32.8808 49.4406 32.5782 49.3351 32.394C48.1657 30.3474 46.9732 28.3143 45.7892 26.2745C45.3048 25.4394 45.3408 24.6994 45.8868 24.0321C46.4595 23.333 47.4258 22.9817 48.2103 23.3074C48.5854 23.463 48.9685 23.7826 49.1765 24.1303C50.6899 26.663 52.1533 29.2256 53.6545 31.7651C53.8009 32.0158 54.0821 32.2982 54.3371 32.3397C54.5628 32.3763 54.9203 32.1555 55.0697 31.9426C55.1856 31.7773 55.1588 31.3997 55.0477 31.2008C54.0852 29.4922 53.0823 27.8056 52.1081 26.1024C51.938 25.8048 51.7897 25.4754 51.7226 25.1411C51.5799 24.4182 51.9014 23.8284 52.6102 23.402C53.2049 23.0439 53.7698 23.1879 54.2517 23.5966C54.6024 23.8949 54.944 24.2432 55.1795 24.6348C57.284 28.1252 59.3306 31.6504 61.4668 35.1207C62.5471 36.8763 63.2297 38.7721 63.8683 40.7065Z" fill="#565454"/>
<path d="M23.3613 25.2361C22.1608 21.0954 24.5532 16.751 28.6939 15.5518C32.834 14.3519 37.1784 16.7443 38.3783 20.885L40.0399 20.4037C38.5747 15.3474 33.2689 12.4261 28.2126 13.8907C23.157 15.3559 20.2351 20.6617 21.7003 25.718C23.1106 30.5852 28.0797 33.462 32.9597 32.364L31.966 30.792C28.1754 31.3306 24.4563 29.0169 23.3613 25.2361Z" fill="#565454"/>
<path d="M11.08 80.572C10.772 82.126 10.1 83.484 9.092 84.352C9.344 84.464 9.764 84.758 9.96 84.912C10.436 84.464 10.842 83.904 11.192 83.26C12.018 83.946 12.9 84.73 13.376 85.262L14.118 84.548C13.558 83.974 12.48 83.078 11.598 82.392C11.794 81.874 11.962 81.328 12.074 80.74L11.08 80.572ZM4.486 80.572C4.08 82.378 3.212 83.876 1.938 84.828C2.176 84.982 2.582 85.318 2.764 85.5C3.45 84.926 4.052 84.184 4.528 83.302C5.032 83.792 5.55 84.31 5.83 84.66L6.544 83.946C6.194 83.54 5.55 82.924 4.962 82.406C5.172 81.888 5.368 81.342 5.508 80.754L4.486 80.572ZM8.49 80.25H14.048V79.228H8.49V77.296H7.426V79.228H2.064V80.25H7.426V83.666C6.138 85.696 3.828 87.628 1.574 88.552C1.812 88.762 2.148 89.168 2.302 89.42C4.164 88.552 6.04 87.04 7.426 85.262V90.064H8.49V85.22C9.848 87.04 11.752 88.608 13.684 89.462C13.838 89.182 14.188 88.762 14.454 88.538C12.074 87.642 9.736 85.668 8.49 83.568V80.25ZM17.128 79.508H26.816V81.16H27.852V78.542H22.49V77.296H21.44V78.542H16.134V81.16H17.128V79.508ZM19.088 85.794C20.11 85.43 21.104 84.996 22.028 84.478C23.022 85.024 24.128 85.458 25.318 85.794H19.088ZM19.186 88.692V86.662H24.842V88.692H19.186ZM19.956 81.608H24.17C23.61 82.252 22.882 82.84 22.042 83.358C21.188 82.868 20.46 82.308 19.914 81.664L19.956 81.608ZM25.066 80.74L24.884 80.782H20.754C20.992 80.516 21.202 80.236 21.398 79.956L20.278 79.746C19.578 80.824 18.22 82.042 16.302 82.896C16.54 83.064 16.848 83.4 17.002 83.638C17.828 83.232 18.556 82.77 19.186 82.266C19.718 82.882 20.362 83.428 21.076 83.904C19.396 84.772 17.422 85.402 15.546 85.738C15.742 85.962 15.966 86.382 16.064 86.648C16.764 86.494 17.478 86.312 18.192 86.088V90.05H19.186V89.588H24.842V90.036H25.892V85.948C26.508 86.102 27.138 86.228 27.782 86.326C27.922 86.018 28.202 85.584 28.44 85.332C26.466 85.08 24.576 84.59 23.008 83.862C24.128 83.106 25.094 82.21 25.766 81.174L25.066 80.74ZM41.656 77.422H40.704V83.218C40.704 83.386 40.634 83.442 40.452 83.456C40.228 83.47 39.556 83.47 38.8 83.442C38.94 83.694 39.08 84.044 39.122 84.31C40.102 84.31 40.746 84.31 41.138 84.156C41.544 84.002 41.656 83.75 41.656 83.218V77.422ZM38.464 77.828H37.526V82.504H38.464V77.828ZM32.906 81.37H30.456V83.974H31.296V82.07H32.906V84.338H33.802V82.07H35.51V83.064C35.51 83.176 35.482 83.218 35.356 83.218C35.23 83.232 34.88 83.232 34.418 83.218C34.516 83.414 34.656 83.68 34.698 83.89C35.314 83.89 35.734 83.89 36.014 83.764C36.322 83.652 36.364 83.456 36.364 83.064V81.37H33.802V80.628H36.784V79.872H33.802V79.004H36.294V78.276H33.802V77.282H32.906V78.276H31.618C31.716 78.024 31.828 77.786 31.912 77.534L31.086 77.338C30.848 78.108 30.456 78.892 29.98 79.452C30.176 79.55 30.554 79.732 30.722 79.858C30.904 79.62 31.086 79.326 31.254 79.004H32.906V79.872H29.77V80.628H32.906V81.37ZM40.746 85.85C40.102 86.326 39.024 86.942 38.156 87.362C37.652 86.886 37.232 86.354 36.896 85.738H42.188V84.87H36.518V84.044H35.482V84.87H29.826V85.738H34.684C33.326 86.564 31.338 87.222 29.588 87.544C29.784 87.74 30.05 88.076 30.162 88.314C31.058 88.118 32.024 87.838 32.948 87.474V88.888C32.416 88.972 31.94 89.042 31.52 89.098L31.688 89.966L37.204 89.07L37.148 88.23C36.056 88.398 34.95 88.58 33.942 88.734V87.04C34.698 86.676 35.398 86.27 35.972 85.836C37.036 88.09 38.982 89.518 41.824 90.092C41.95 89.84 42.202 89.448 42.412 89.252C40.984 89.014 39.78 88.552 38.828 87.88C39.696 87.488 40.704 86.942 41.502 86.396L40.746 85.85ZM47.41 77.506C46.486 79.704 44.946 81.818 43.35 83.148C43.546 83.4 43.868 83.946 43.98 84.198C44.596 83.638 45.212 82.966 45.8 82.224V90.036H46.85V80.754C47.452 79.83 47.984 78.836 48.404 77.842L47.41 77.506ZM51.778 88.888C51.008 88.888 50.854 88.72 50.854 87.936V83.876C52.59 82.952 54.466 81.888 55.782 80.824L55.04 79.928C54.004 80.866 52.408 81.958 50.854 82.826V77.618H49.804V87.922C49.804 89.448 50.252 89.868 51.708 89.868H54.578C56.02 89.868 56.328 89.07 56.496 86.802C56.188 86.732 55.768 86.536 55.502 86.354C55.404 88.384 55.278 88.888 54.508 88.888H51.778ZM57.77 89.672H70.258V88.93H57.77V89.672ZM67.682 86.34H64.434V85.626H67.682V86.34ZM67.682 87.67H64.434V86.928H67.682V87.67ZM60.36 86.928H63.468V87.67H60.36V86.928ZM60.36 85.626H63.468V86.34H60.36V85.626ZM59.366 85.024V88.272H68.732V85.024H59.366ZM64.462 80.166H67.668V80.936H64.462V80.166ZM64.462 78.794H67.668V79.508H64.462V78.794ZM64.462 83.68V82.952H69.25V82.294H64.462V81.58H68.704V80.166H70.216V79.508H68.704V78.15H64.462V77.282H63.426V78.15H59.268V78.794H63.426V79.508H57.798V80.166H63.426V80.936H59.184V81.58H63.426V82.294H58.848V82.952H63.426V83.68H57.77V84.408H70.258V83.68H64.462ZM82.452 88.37H80.352V81.93H82.452V88.37ZM73.506 81.93H75.494V88.37H73.506V81.93ZM79.4 83.47H76.446V81.93H79.4V83.47ZM76.446 86.746H79.4V88.37H76.446V86.746ZM79.4 85.892H76.446V84.324H79.4V85.892ZM84.174 79.214V78.22H71.868V79.214H77.23C77.118 79.788 76.978 80.432 76.824 80.964H72.498V90.078H73.506V89.336H82.452V90.078H83.502V80.964H77.888C78.07 80.432 78.266 79.802 78.434 79.214H84.174ZM88.864 79.578V85.416H87.086V79.578H88.864ZM89.83 78.612H86.134V87.712H87.086V86.382H89.83V78.612ZM93.988 79.158V83.652H92.084V79.158H93.988ZM96.914 83.652H94.94V79.158H96.914V83.652ZM93.148 88.832C92.252 88.832 92.084 88.664 92.084 87.88V84.604H96.914V85.486H97.936V78.192H91.062V87.866C91.062 89.42 91.566 89.798 93.106 89.798H96.536C97.992 89.798 98.314 89.168 98.482 87.264C98.188 87.208 97.782 87.026 97.53 86.844C97.418 88.44 97.278 88.832 96.494 88.832H93.148Z" fill="#565454"/>
</svg>
