<svg width="48" height="48" viewBox="0 0 48 48" fill="none" xmlns="http://www.w3.org/2000/svg">
<circle cx="24" cy="24" r="24" fill="#E4BEBE"/>
<g clip-path="url(#clip0)">
<path d="M34.0455 24.0476C34.0455 24.2973 34.2593 24.5 34.5227 24.5C34.7862 24.5 35 24.2973 35 24.0476C35 18.5598 30.2898 14.0952 24.5 14.0952C18.7102 14.0952 14 18.5598 14 24.0476C14 29.5355 18.7102 34 24.5 34C29.4111 34 33.7276 30.7024 34.7635 26.1591C34.8191 25.9148 34.6554 25.6739 34.3979 25.6212C34.1395 25.5694 33.886 25.7237 33.8304 25.9678C32.8888 30.0978 28.9646 33.0952 24.5 33.0952C19.2366 33.0952 14.9545 29.0365 14.9545 24.0476C14.9545 19.0588 19.2366 15 24.5 15C29.7634 15 34.0455 19.0588 34.0455 24.0476ZM24.0227 16.9982V23.8549L20.0726 27.4536C19.8824 27.6269 19.8767 27.9132 20.059 28.0933C20.153 28.1858 20.2778 28.2322 20.4031 28.2322C20.5222 28.2322 20.6412 28.1901 20.7338 28.1059L24.8305 24.3736C24.9243 24.2883 24.9773 24.1707 24.9773 24.0476V16.9982C24.9773 16.7485 24.7635 16.5458 24.5 16.5458C24.2365 16.5458 24.0227 16.7482 24.0227 16.9982Z" fill="white"/>
</g>
<defs>
<clipPath id="clip0">
<rect width="22" height="22" fill="white" transform="translate(13 12)"/>
</clipPath>
</defs>
</svg>
