<svg height='100px' width='100px'  fill="#000000" xmlns="http://www.w3.org/2000/svg" xmlns:xlink="http://www.w3.org/1999/xlink" version="1.1" x="0px" y="0px" viewBox="0 0 215.4 269.3" enable-background="new 0 0 215.4 269.3" xml:space="preserve"><path d="M71.2,193.7c0-3.8,0.9-7.5,2.2-11c2-5.4,4-10.8,6.3-16.1c1.3-2.9,3.5-5.1,6.6-6.3c2.6-1,4.5-0.7,6.1,1.7  c1.3,1.9,2.4,4.1,3.2,6.3c3.4,10.7,1.9,20.6-5.3,29.4c-1.4,1.8-3.4,3.2-5.3,4.6c-3.2,2.4-6.6,1.6-9.9,0c-3-1.5-3.9-4.3-4-7.4  C71.2,194.5,71.2,194.1,71.2,193.7z M85.7,172.9c-0.7,1.5-1.3,2.8-1.9,4c-1.7,3.7-3.3,7.4-3.8,11.5c-0.2,1.8-0.2,3.6,0.5,5.5  c3.1-4.4,5.4-8.8,6.4-13.9C87.4,177.7,87.3,175.3,85.7,172.9z"></path><path d="M150,40c3,0.3,5.7,0.9,8.3,2.3c3.2,1.8,4.6,4.8,3.2,8.2c-0.9,2.3-2.5,4.3-3.8,6.5c-1,1.5-2,3-3.1,4.6  c-0.2,0.3-0.4,0.6-0.6,0.7c-2.5,1.2-5,2.5-7.6,3.6c-6.1,2.6-13.1-2.3-13.4-9.1c-0.2-6.7,4-12.8,10.7-15.1  C145.7,40.8,147.9,40.5,150,40z"></path><path d="M56,92.8c1.6,0.2,3.1,0.3,4.6,0.7c3.8,0.9,5.9,3.5,6.8,7.2c0.1,0.4-0.1,1.1-0.4,1.4c-3.3,3.3-6.5,6.7-10,9.8  c-2.6,2.3-5.4,4.5-8.5,6.2c-5.2,2.9-10.6,1.6-14.5-2.9c-1.9-2.2-3.2-4.7-4-7.4c-0.1-0.3-0.3-0.6-0.2-0.8c1-2.6,1.3-5.6,3.5-7.4  c4.1-3.5,9.2-4.8,14.4-5.7C50.3,93.3,53.1,93.1,56,92.8z M54.3,97.6c-5.5,0.2-10.6,1.6-15,4.9c-3,2.2-3.8,5.3-3.5,8.7  c0.2,2,1.3,2.9,3.3,2.7c0.8-0.1,1.6-0.2,2.4-0.4c7.9-1.8,13.9-6.6,19.2-12.5c0.7-0.8,0.6-1.5-0.3-2C58.5,97.8,56.5,97.6,54.3,97.6z"></path><path d="M88.2,137.2c-5,6.4-10.1,13.1-17.7,17.3c-5.1,2.8-11.3,3.8-15.9,2.5c-0.2-0.7-0.4-1.4-0.6-2.3c4.1-5.4,8-11.2,13.4-15.7  c4.5-3.8,9.7-6.1,15.6-7c1.5-0.2,2.3,0.7,3,1.9C86.7,135,87.4,136,88.2,137.2z"></path><path d="M187.1,131.8c-1.3,9.9-5.4,15.8-14.5,18.3c-4.2,1.1-7.4-0.4-8.8-4c-0.2-0.5-0.3-1.1-0.2-1.6c0.6-2.4,1.2-4.7,1.9-7  c0.9-3.1,2.5-5.5,5.3-7.2c3-1.8,6.1-3.3,9.7-3.6c2-0.2,4,0,5.2,1.7C186.4,129.4,186.6,130.7,187.1,131.8z"></path><g><path d="M177.8,174.4c-0.3-6.5-3.8-11-9.2-12.3c-1.5-0.3-3.1-0.5-4.7-0.5c-1.1,0-2.1,0.1-3.1,0.2c-7.1,1-13.9,4.2-20.8,9.7   c-4.5,3.6-6.9,7.3-7.7,11.9c-0.1,0.8-0.4,1.6-0.7,2.5c-0.1,0.4-0.3,0.9-0.4,1.3c-0.1,0.3,0,0.7,0.2,0.9l0.3,0.4l-0.9,0.7   c-0.2,0.2-0.4,0.4-0.4,0.7c0,0.3,0.1,0.6,0.3,0.8c0.5,0.5,0.9,0.9,1.4,1.4c1,1,2,2.1,3.1,3c3,2.3,6.5,3.5,10.2,3.5   c2.2,0,4.6-0.4,7.1-1.2c8.5-2.8,15.9-8.2,23.3-16.9C177.3,178.8,177.9,176.8,177.8,174.4z M171.9,175.4c-0.1,0.3-0.1,0.6-0.2,0.8   c-6.4,7.9-13.3,13.1-21.1,15.7c-1.9,0.6-3.5,0.9-5.1,0.9c-2.4,0-4.5-0.7-6.5-2c-0.2-0.2-0.5-0.3-0.7-0.5c-0.7-0.6-1.3-1.1-1.3-1.3   c-0.1-0.2,0.1-0.9,0.4-1.8c0.2-0.6,0.4-1.3,0.5-2c0.5-3.4,2.3-6.2,6-9.1c5.7-4.5,11.3-7.2,17.4-8.2c1.1-0.2,2-0.3,2.9-0.3   c1.3,0,2.4,0.2,3.5,0.6c3.3,1.2,4.2,4.4,4.4,6.9C172,175,172,175.2,171.9,175.4z"></path><path d="M97.5,65.5c-1.7-3.1-3.5-6.2-5.2-9.2c-0.8-1.3-1.5-2.6-2.3-4c-0.2-0.3-0.5-0.5-0.9-0.5c-0.1,0-0.2,0-0.3,0   c-0.1-0.2-0.3-0.4-0.5-0.5c-1.5-0.7-3.1-1.1-4.6-1.1c-4,0-7.6,2.4-9.5,6.5c-2.4,5.2-3,10.6-1.8,16.2c2,9.2,10.9,16.1,20.6,16.1   c1.8,0,3.7-0.2,5.4-0.7c0.8-0.2,1.5-0.9,1.8-1.6c1-2.9,1.4-5.8,1.1-8.7C100.9,73.8,99.6,69.5,97.5,65.5z M95.3,82.6   c0,0.2-0.2,0.4-0.3,0.5c-0.6,0.1-1.3,0.1-2,0.1c-5.4,0-10.8-3.1-13.5-7.7c-1.3-2.2-1.7-4.2-1.7-7.5c0-3.7,0.6-6.5,1.9-9   c0.7-1.3,1.9-2.8,3.9-2.8c0.4,0,0.9,0.1,1.4,0.2c0.2,0.1,0.4,0.2,0.4,0.2l0.4,0.6c3.4,5.3,7,10.8,8.8,17   C95.6,77.6,95.8,80.2,95.3,82.6z"></path></g><path d="M149.2,139.8c-6.5-0.2-12.2-0.7-17.5-3.1c-1.5-0.7-3-1.7-4.1-2.8c-2.7-2.7-1.9-6.5,1.4-8.2c2.6-1.3,5.4-1.8,8.1-0.8  c4.8,1.9,9.4,4,14,6.2c1.6,0.8,3,2.2,4.5,3.4c0.5,0.4,0.9,3.8,0.5,4.2c-0.3,0.3-0.9,0.5-1.3,0.6  C152.6,139.5,150.5,139.7,149.2,139.8z"></path><path d="M143.2,211.4c5.1,0.3,9.9,1.8,14.1,4.8c2.3,1.6,2.5,4.5,0.7,6.7c-0.4,0.4-0.8,0.8-1.2,1.1c-4.2,2.1-8.5,3.7-13.3,3.2  c-5.9-0.7-8.4-6.3-7.7-10.5c0.5-3,3-5.1,6.2-5.2C142.4,211.4,142.8,211.4,143.2,211.4z"></path><path d="M127.1,94.3c-0.3,2.1-0.7,4.2-1.1,6.4c-0.1,0.3-0.2,0.7-0.5,0.9c-1.9,1.2-3.9,2.1-6.2,2c-2.4-0.1-3.8-1.6-4.6-3.7  c-1.3-3.3-1.2-6.7-0.7-10.2c0.5-3.2,1.4-6.3,3.2-9.1c0.6-0.9,1.1-1,2-0.6c3.8,1.7,5.7,4.8,6.8,8.5C126.6,90.4,126.7,92.3,127.1,94.3  z"></path><path d="M51.5,189.4c-0.6,2.9-1,5.9-1.9,8.7c-0.9,2.8-2.4,3-4.4,0.8c-4.5-5-6.9-10.7-6.6-17.5c0.2-3.4,1.8-5.6,4.5-7.3  c1.9-1.2,3.4-0.6,4.2,1.5c0.1,0.3,0.2,0.5,0.3,0.7c2.8,3.9,3.4,8.4,3.3,13.1C51.2,189.3,51.4,189.3,51.5,189.4z"></path><path d="M92.3,122.9c0.7-7.1,3.3-12.4,9-15.8c2.8-1.7,6.4,0.5,6.6,3.8c0.2,2.3-0.4,4.5-1.7,6.4c-2.3,3.6-4.9,7.1-7.5,10.5  c-0.7,0.9-1.8,1.4-2.8,1.9c-1.2,0.6-2.1,0.2-2.5-1.1C93,126.5,92.6,124.4,92.3,122.9z M96.9,123.3c4.3-3.3,6.8-7.6,6.3-10.7  C99.8,115.3,97.1,119.8,96.9,123.3z"></path><path d="M145.3,94.3c-2.2,0.1-4.4-0.7-6.3-2c-2.3-1.5-2.8-3.5-1.5-6c1.3-2.3,3.3-3.9,5.6-5.1c3.2-1.6,6.6-2.7,10.3-2.4  c4.1,0.3,6,3.2,4.7,7.1C156.4,91.1,151.5,94.3,145.3,94.3z M140.4,87.6c1.3,1.8,2.7,2.6,4.8,2.3c3.6-0.7,6.5-2.7,8.6-5.7  c0,0-0.1-0.2-0.1-0.3C148.8,83.6,144.6,85.6,140.4,87.6z"></path><path d="M111.7,212.8c-0.4,1.2-0.6,2.1-1,3c-3,6.5-10,10.8-17.1,10.5c-1,0-2.1-0.3-3.1-0.6c-2.2-0.7-3-2.4-1.9-4.4  c0.7-1.3,1.6-2.5,2.6-3.5c4-4.2,9.1-5.7,14.8-5.5C107.8,212.4,109.6,212.6,111.7,212.8z M93.5,219.7c4-0.8,9.8-3.7,10.7-5.4  C100,214.7,96.1,215.5,93.5,219.7z M97,222.6c0.1,0.1,0.1,0.3,0.2,0.4c1.4-0.7,2.8-1.4,4.1-2.1c-0.1-0.2-0.2-0.3-0.3-0.5  C99.7,221.2,98.4,221.9,97,222.6z"></path><path d="M115.1,151.1c2.2,0,4.1,1,5.5,2.5c1.6,1.6,2.8,3.4,4.2,5.2c1.6,2.1-0.8,4.8-2.8,4.7c-0.6,0-1.3-0.1-1.9-0.3  c-4.3-1.4-7.2-4.3-8.8-8.5c-0.6-1.6,1-3.4,3-3.7C114.5,151.1,114.8,151.1,115.1,151.1z"></path></svg>