<svg height='100px' width='100px'  fill="#000000" xmlns="http://www.w3.org/2000/svg" xmlns:xlink="http://www.w3.org/1999/xlink" version="1.1" x="0px" y="0px" viewBox="0 0 100 100" enable-background="new 0 0 100 100" xml:space="preserve"><path d="M76.75,5H23.25c-2.626,0-4.762,2.136-4.762,4.762v80.251c0,1.816,1.009,3.448,2.633,4.259  c1.625,0.813,3.535,0.639,4.987-0.45L50,75.903l24.244,18.185C75.05,94.691,76.003,95,76.964,95c0.692,0,1.389-0.161,2.037-0.484  c1.548-0.775,2.511-2.332,2.511-4.064V9.762C81.513,7.136,79.376,5,76.75,5z M75.783,88.079L52.858,70.885  c-0.841-0.632-1.849-0.947-2.858-0.947s-2.016,0.315-2.858,0.946L24.217,88.079V10.73h51.566V88.079z M35.728,33.754l7.61,5.466  c0.292,0.21,0.414,0.585,0.302,0.927l-2.934,8.888c-0.251,0.761,0.623,1.396,1.269,0.922l7.548-5.545  c0.29-0.213,0.685-0.213,0.975,0l7.547,5.537c0.646,0.474,1.521-0.161,1.269-0.923l-2.942-8.894  c-0.113-0.342,0.009-0.717,0.301-0.927l7.599-5.464c0.651-0.468,0.317-1.496-0.485-1.492l-9.364,0.049  c-0.36,0.002-0.679-0.23-0.789-0.572l-2.859-8.923c-0.245-0.763-1.325-0.763-1.569,0.001L46.36,31.73  c-0.109,0.343-0.428,0.575-0.788,0.573l-9.36-0.042C35.41,32.258,35.077,33.286,35.728,33.754z"></path></svg>