<svg width="30" height="30" viewBox="0 0 30 30" fill="none" xmlns="http://www.w3.org/2000/svg">
<g clip-path="url(#clip0)">
<path d="M25 0H5C3.67392 0 2.40215 0.526784 1.46447 1.46447C0.526784 2.40215 0 3.67392 0 5L0 25C0 26.3261 0.526784 27.5979 1.46447 28.5355C2.40215 29.4732 3.67392 30 5 30H25C26.3261 30 27.5979 29.4732 28.5355 28.5355C29.4732 27.5979 30 26.3261 30 25V5C30 3.67392 29.4732 2.40215 28.5355 1.46447C27.5979 0.526784 26.3261 0 25 0V0ZM27.5 25C27.5 25.663 27.2366 26.2989 26.7678 26.7678C26.2989 27.2366 25.663 27.5 25 27.5H5C4.33696 27.5 3.70107 27.2366 3.23223 26.7678C2.76339 26.2989 2.5 25.663 2.5 25V5C2.5 4.33696 2.76339 3.70107 3.23223 3.23223C3.70107 2.76339 4.33696 2.5 5 2.5H25C25.663 2.5 26.2989 2.76339 26.7678 3.23223C27.2366 3.70107 27.5 4.33696 27.5 5V25Z" fill="#E4BEBE"/>
<path d="M15 7.5C13.5166 7.5 12.0666 7.93987 10.8332 8.76398C9.59986 9.58809 8.63856 10.7594 8.07091 12.1299C7.50325 13.5003 7.35472 15.0083 7.64411 16.4632C7.9335 17.918 8.64781 19.2544 9.6967 20.3033C10.7456 21.3522 12.082 22.0665 13.5368 22.3559C14.9917 22.6453 16.4997 22.4968 17.8701 21.9291C19.2406 21.3614 20.4119 20.4001 21.236 19.1668C22.0601 17.9334 22.5 16.4834 22.5 15C22.5 13.0109 21.7098 11.1032 20.3033 9.6967C18.8968 8.29018 16.9891 7.5 15 7.5ZM15 20C14.0111 20 13.0444 19.7068 12.2222 19.1573C11.3999 18.6079 10.759 17.827 10.3806 16.9134C10.0022 15.9998 9.90315 14.9945 10.0961 14.0245C10.289 13.0546 10.7652 12.1637 11.4645 11.4645C12.1637 10.7652 13.0546 10.289 14.0246 10.0961C14.9945 9.90315 15.9998 10.0022 16.9134 10.3806C17.8271 10.759 18.6079 11.3999 19.1574 12.2221C19.7068 13.0444 20 14.0111 20 15C20 16.3261 19.4732 17.5979 18.5355 18.5355C17.5979 19.4732 16.3261 20 15 20Z" fill="#E4BEBE"/>
<path d="M23.125 8.75C24.1605 8.75 25 7.91053 25 6.875C25 5.83947 24.1605 5 23.125 5C22.0895 5 21.25 5.83947 21.25 6.875C21.25 7.91053 22.0895 8.75 23.125 8.75Z" fill="#E4BEBE"/>
</g>
<defs>
<clipPath id="clip0">
<rect width="30" height="30" fill="white"/>
</clipPath>
</defs>
</svg>
