<svg width="40" height="40" viewBox="0 0 40 40" fill="none" xmlns="http://www.w3.org/2000/svg">
<path d="M18.183 3.48566C17.6947 3.48566 17.2502 3.71553 16.9628 4.03483C16.6754 4.35413 16.5159 4.7448 16.4397 5.14719C16.4397 5.14739 16.4397 5.14759 16.4397 5.14778L15.9511 7.73095C15.3464 7.93158 14.7586 8.17613 14.1899 8.46337L12.0145 6.98006C11.6763 6.74952 11.2873 6.58566 10.8582 6.56304C10.4287 6.54048 9.95227 6.69331 9.60742 7.0382L7.03876 9.60686C6.69346 9.95206 6.54116 10.4288 6.56345 10.8578C6.5856 11.2868 6.74925 11.6768 6.97986 12.0153L8.45676 14.1815C8.17028 14.7531 7.92698 15.3437 7.72784 15.9513L5.14713 16.4397C4.74473 16.5159 4.35331 16.6754 4.034 16.9628C3.71469 17.2503 3.48499 17.6955 3.48499 18.1839V21.8165C3.48499 22.3048 3.71469 22.7494 4.034 23.0368C4.35331 23.3242 4.74473 23.4843 5.14713 23.5604L7.73197 24.0501C7.9326 24.6542 8.17668 25.2414 8.46377 25.8096L6.97986 27.985C6.74907 28.3236 6.58574 28.7133 6.56345 29.1424C6.54131 29.5715 6.69331 30.0482 7.03876 30.3933L9.60742 32.962C9.95269 33.3073 10.4291 33.459 10.8582 33.4365C11.2872 33.4141 11.6767 33.2504 12.0151 33.0197L14.1812 31.5432C14.753 31.8297 15.344 32.0726 15.9517 32.2717L16.4402 34.8524C16.5163 35.2548 16.6759 35.6462 16.9634 35.9655C17.2508 36.2848 17.6953 36.5145 18.1836 36.5145H21.8169C22.3052 36.5145 22.7497 36.2848 23.0371 35.9655C23.3244 35.6464 23.4842 35.2552 23.5604 34.853V34.8521L24.0494 32.2691C24.6542 32.0685 25.2419 31.8239 25.8106 31.5367L27.9854 33.0194C28.3238 33.2501 28.7133 33.4138 29.1423 33.4363C29.5713 33.4587 30.0484 33.307 30.3937 32.9617L32.9624 30.3931C33.3076 30.0478 33.4596 29.5706 33.4371 29.1415C33.4146 28.7125 33.2508 28.323 33.0201 27.9846L31.5432 25.8186C31.8297 25.2469 32.0729 24.6563 32.2721 24.0486L34.8528 23.5602C35.2552 23.484 35.6466 23.3239 35.9659 23.0365C36.2852 22.7491 36.5149 22.3046 36.5149 21.8163V18.1834C36.5149 17.6951 36.2852 17.25 35.9659 16.9626C35.6468 16.6753 35.2556 16.5157 34.8534 16.4395L32.2698 15.9505C32.0692 15.3461 31.8244 14.7588 31.5374 14.1904L33.0207 12.0151C33.2513 11.6767 33.4151 11.2872 33.4377 10.8582C33.4604 10.4291 33.3079 9.95194 32.9624 9.60663L30.3943 7.03796C30.049 6.69281 29.5721 6.54026 29.1428 6.56281C28.7138 6.58548 28.3248 6.74938 27.9866 6.97983L25.8205 8.45673C25.2488 8.17031 24.6577 7.92731 24.05 7.72827L23.5608 5.14694C23.4847 4.74457 23.3252 4.35388 23.0378 4.03458C22.7504 3.71526 22.3058 3.48541 21.8175 3.48541L18.183 3.48566ZM19.9997 13.7437C23.4623 13.7437 26.2553 16.5372 26.2552 19.9998C26.2552 23.4623 23.4622 26.2558 19.9997 26.2559C16.5371 26.2559 13.7436 23.4624 13.7435 19.9998C13.7435 16.537 16.537 13.7436 19.9997 13.7437Z" fill="#565454"/>
</svg>
