<svg width="24" height="24" viewBox="0 0 24 24" fill="none" xmlns="http://www.w3.org/2000/svg">
<path fill-rule="evenodd" clip-rule="evenodd" d="M11.6322 2.34639C11.8606 2.21795 12.1393 2.21795 12.3677 2.34639L20.3677 6.84639C20.6039 6.9792 20.7499 7.22913 20.7499 7.50007V16.5001C20.7499 16.7711 20.6038 17.0208 20.3677 17.1537L12.3677 21.6537C12.1393 21.7822 11.8606 21.7822 11.6322 21.6537L3.6322 17.1537C3.3961 17.0209 3.24994 16.7711 3.24994 16.5001V7.50007C3.24994 7.22913 3.39611 6.97921 3.6322 6.84639L11.6322 2.34639ZM4.75 7.93879V16.0616L12 20.1398L19.25 16.0616V7.93879L12 3.86059L4.75 7.93879Z" fill="#2D3042"/>
<path fill-rule="evenodd" clip-rule="evenodd" d="M12 9.75C10.7574 9.75 9.75 10.7574 9.75 12C9.75 13.2426 10.7574 14.25 12 14.25C13.2426 14.25 14.25 13.2426 14.25 12C14.25 10.7574 13.2426 9.75 12 9.75ZM8.25 12C8.25 9.929 9.9289 8.25 12 8.25C14.0711 8.25 15.75 9.9289 15.75 12C15.75 14.0711 14.0711 15.75 12 15.75C9.9289 15.75 8.25 14.0711 8.25 12Z" fill="#2D3042"/>
</svg>
