<?xml version="1.0" encoding="UTF-8"?>
<svg width="1200pt" height="1200pt" version="1.1" viewBox="0 0 1200 1200" xmlns="http://www.w3.org/2000/svg">
 <g fill="#2d3042">
  <path d="m995.67 721.1h-28.125v-134.7h43.125c8.375 0 16.109-4.4688 20.297-11.719s4.1875-16.188 0-23.438-11.922-11.719-20.297-11.719h-43.125v-107.51c0-24.031-2.3516-48.008-7.0312-71.578l38.766-14.062c7.3789-3.1719 12.621-9.8984 13.891-17.828 1.2695-7.9336-1.6094-15.961-7.6328-21.273-6.0195-5.3164-14.344-7.1797-22.055-4.9375l-34.969 12.633c-18.441-54.609-49.465-104.12-90.562-144.54l25.641-29.812c5.1875-6.3867 6.6484-15.031 3.8398-22.766-2.8047-7.7383-9.4648-13.438-17.539-15.016-8.0781-1.5742-16.391 1.1992-21.902 7.3125l-25.336 29.555c-57.566-43.988-126.91-69.875-199.22-74.367v-39.562c0-8.375-4.4688-16.109-11.719-20.297s-16.188-4.1875-23.438 0-11.719 11.922-11.719 20.297v39.586c-72.238 4.5781-141.48 30.512-198.96 74.508l-25.594-29.719c-5.5117-6.1133-13.824-8.8867-21.902-7.3125-8.0742 1.5781-14.734 7.2773-17.539 15.016-2.8086 7.7344-1.3477 16.379 3.8398 22.766l25.781 30c-41.016 40.426-71.977 89.906-90.398 144.47l-35.273-12.75c-5.8477-2.1094-12.297-1.8125-17.926 0.83203s-9.9766 7.418-12.086 13.266-1.8125 12.297 0.83203 17.926c2.6445 5.6289 7.418 9.9766 13.266 12.086l39.141 14.062c-4.6758 23.531-7.0312 47.469-7.0312 71.461v107.55h-43.477c-8.375 0-16.109 4.4688-20.297 11.719s-4.1875 16.188 0 23.438 11.922 11.719 20.297 11.719h43.5v134.7h-13.688c-16.02 0.019532-31.375 6.3906-42.703 17.719-11.328 11.328-17.699 26.684-17.719 42.703v68.484c0.019531 16.016 6.3906 31.371 17.719 42.695s26.688 17.691 42.703 17.703h12.68l64.594 219.91c5.7852 19.391 17.652 36.406 33.852 48.531s35.867 18.719 56.102 18.805h427.45c20.234-0.085938 39.902-6.6797 56.102-18.805s28.066-29.141 33.852-48.531l64.594-219.91h27.398c16.012-0.019531 31.363-6.3867 42.688-17.711 11.324-11.324 17.691-26.676 17.711-42.688v-68.484c-0.019531-16.016-6.3867-31.371-17.711-42.695-11.32-11.328-26.672-17.703-42.688-17.727zm-716.06-289.08c0-176.77 143.81-320.58 320.58-320.58 147.66 0 272.37 100.43 309.38 236.55 0.1875 1.8789 0.60547 3.7305 1.2422 5.5078 0.14844 0.4375 0.32031 0.87109 0.51562 1.2891 6.2578 25.305 9.4062 51.277 9.375 77.344v126.84c-0.5 2.7031-0.5 5.4766 0 8.1797v154.05h-641.09zm579.09 685.08c-2.8867 9.6992-8.8164 18.215-16.918 24.281-8.1016 6.0625-17.938 9.3594-28.059 9.3984h-427.45c-10.121-0.039062-19.957-3.3359-28.059-9.3984-8.1016-6.0664-14.031-14.582-16.918-24.281l-60.727-206.7h638.86zm150.49-267.19c0 7.4688-6.0547 13.523-13.523 13.523h-776.62c-3.5898 0.007812-7.0352-1.4141-9.5781-3.9531-2.5391-2.5352-3.9688-5.9805-3.9688-9.5703v-68.391c0-7.4805 6.0664-13.547 13.547-13.547h776.62c7.4727 0.011719 13.523 6.0742 13.523 13.547z"/>
  <path d="m480.87 404.6c-6.2148 0-12.176 2.4688-16.574 6.8633-4.3945 4.3984-6.8633 10.359-6.8633 16.574-0.22656 6.1719-3.6484 11.785-9.0352 14.809-5.3867 3.0234-11.957 3.0234-17.344 0-5.3867-3.0234-8.8086-8.6367-9.0352-14.809 0-8.375-4.4688-16.109-11.719-20.297s-16.188-4.1875-23.438 0-11.719 11.922-11.719 20.297c0.43359 22.781 12.836 43.648 32.641 54.914s44.078 11.266 63.883 0c19.805-11.266 32.207-32.133 32.641-54.914 0-6.2148-2.4688-12.176-6.8633-16.574-4.3984-4.3945-10.359-6.8633-16.574-6.8633z"/>
  <path d="m801.42 404.6c-6.2148 0-12.176 2.4688-16.574 6.8633-4.3945 4.3984-6.8633 10.359-6.8633 16.574-0.22656 6.1719-3.6484 11.785-9.0352 14.809-5.3867 3.0234-11.957 3.0234-17.344 0-5.3867-3.0234-8.8086-8.6367-9.0352-14.809 0-8.375-4.4688-16.109-11.719-20.297s-16.188-4.1875-23.438 0-11.719 11.922-11.719 20.297c0.43359 22.781 12.836 43.648 32.641 54.914 19.805 11.266 44.078 11.266 63.883 0s32.207-32.133 32.641-54.914c0-6.2148-2.4688-12.176-6.8633-16.574-4.3984-4.3945-10.359-6.8633-16.574-6.8633z"/>
  <path d="m678.61 495.47c-4.9961-0.011719-9.8633 1.5742-13.895 4.5273s-7.0117 7.1133-8.5117 11.879c-1.5938 4.2656-13.523 31.43-56.25 31.43s-54.609-27.164-56.25-31.43c-2.2188-7.2344-7.793-12.949-14.969-15.352-7.1758-2.4023-15.07-1.1914-21.195 3.25-6.125 4.4414-9.7305 11.566-9.6797 19.133 0 2.5352 0.42188 5.0547 1.2422 7.4531 0.82031 2.6016 21.398 63.914 100.78 63.914 79.383 0 100.01-61.312 100.78-63.914 0.82031-2.3984 1.2422-4.918 1.2422-7.4531 0-6.1914-2.4492-12.133-6.8164-16.523-4.3633-4.3906-10.289-6.875-16.48-6.9141z"/>
 </g>
</svg>
