<svg width="48" height="48" viewBox="0 0 48 48" fill="none" xmlns="http://www.w3.org/2000/svg">
<circle cx="24" cy="24" r="24" fill="#E3DDC4"/>
<path d="M27.8357 23.1548C27.4611 23.5859 27.0115 23.9504 26.5071 24.2319C26.3516 24.3274 26.2404 24.4774 26.1965 24.6503C26.1527 24.8233 26.1797 25.006 26.2719 25.1602C26.3641 25.3143 26.5144 25.4281 26.6913 25.4777C26.8682 25.5274 27.0582 25.509 27.2214 25.4264C27.8692 25.0656 28.4469 24.5983 28.9285 24.0455C29.0507 23.9054 29.1104 23.7241 29.0943 23.5415C29.0782 23.359 28.9878 23.19 28.8428 23.0719C28.6979 22.9538 28.5104 22.8962 28.3215 22.9117C28.1326 22.9272 27.9579 23.0147 27.8357 23.1548Z" fill="white"/>
<path d="M24.8428 15.2833C25.4182 15.3775 25.972 15.5692 26.4785 15.8495C26.5601 15.8949 26.6501 15.9242 26.7435 15.9359C26.8368 15.9476 26.9316 15.9414 27.0225 15.9177C27.1134 15.894 27.1985 15.8532 27.2731 15.7977C27.3477 15.7421 27.4102 15.6729 27.4571 15.594C27.504 15.5152 27.5343 15.4281 27.5464 15.3379C27.5585 15.2477 27.5521 15.156 27.5276 15.0682C27.5031 14.9803 27.4609 14.898 27.4034 14.8259C27.346 14.7539 27.2744 14.6934 27.1928 14.6481C26.5418 14.29 25.8311 14.0447 25.0928 13.9231C24.9033 13.8929 24.7092 13.9366 24.5532 14.0448C24.3971 14.1529 24.2919 14.3165 24.2606 14.4996C24.2294 14.6828 24.2747 14.8704 24.3865 15.0213C24.4984 15.1721 24.6676 15.2738 24.8571 15.304L24.8428 15.2833Z" fill="white"/>
<path d="M28.6858 18.3629C28.7146 18.4527 28.7621 18.5358 28.8253 18.6072C28.8886 18.6786 28.9662 18.7368 29.0535 18.7782C29.1408 18.8196 29.236 18.8433 29.3331 18.8479C29.4302 18.8525 29.5273 18.8378 29.6184 18.8049C29.7094 18.7719 29.7926 18.7213 29.8627 18.6562C29.9329 18.5911 29.9885 18.5128 30.0263 18.4262C30.064 18.3396 30.083 18.2464 30.0822 18.1524C30.0814 18.0584 30.0607 17.9655 30.0215 17.8795C29.76 17.2016 29.3781 16.5731 28.8929 16.0222C28.8319 15.9532 28.7575 15.8966 28.6739 15.8555C28.5903 15.8144 28.4991 15.7896 28.4056 15.7825C28.3121 15.7755 28.2181 15.7863 28.1289 15.8144C28.0397 15.8425 27.9571 15.8873 27.8858 15.9462C27.8145 16.0051 27.7559 16.0771 27.7134 16.1579C27.6708 16.2387 27.6452 16.3269 27.6379 16.4173C27.6306 16.5077 27.6418 16.5986 27.6709 16.6848C27.6999 16.771 27.7462 16.8509 27.8072 16.9198C28.1847 17.3477 28.482 17.8361 28.6858 18.3629V18.3629Z" fill="white"/>
<path d="M21.4786 15.9048C21.9824 15.6211 22.5335 15.4248 23.1072 15.3248C23.201 15.3084 23.2906 15.2744 23.3708 15.2246C23.451 15.1749 23.5203 15.1103 23.5746 15.0346C23.629 14.959 23.6675 14.8737 23.6878 14.7837C23.7081 14.6937 23.7098 14.6007 23.6929 14.51C23.6761 14.4193 23.6409 14.3327 23.5894 14.2552C23.5379 14.1777 23.4711 14.1107 23.3928 14.0582C23.3145 14.0056 23.2263 13.9684 23.1332 13.9488C23.0401 13.9292 22.9439 13.9275 22.8501 13.9438C22.1128 14.0726 21.4046 14.325 20.7572 14.6895C20.6719 14.7327 20.5964 14.7921 20.5354 14.8642C20.4744 14.9363 20.4291 15.0195 20.4023 15.109C20.3755 15.1984 20.3676 15.2922 20.3792 15.3846C20.3909 15.477 20.4217 15.5663 20.4699 15.6469C20.5181 15.7275 20.5827 15.7979 20.6598 15.8537C20.7368 15.9096 20.8248 15.9498 20.9184 15.972C21.0119 15.9941 21.1092 15.9978 21.2042 15.9827C21.2993 15.9675 21.3902 15.934 21.4715 15.884L21.4786 15.9048Z" fill="white"/>
<path d="M18.3787 18.8324C18.5568 18.8946 18.7531 18.8859 18.9245 18.8082C19.096 18.7305 19.2285 18.5902 19.293 18.4181C19.4909 17.8874 19.7834 17.3943 20.1573 16.9612C20.2785 16.8202 20.3368 16.6384 20.3194 16.4558C20.302 16.2732 20.2103 16.1048 20.0644 15.9876C19.9185 15.8704 19.7305 15.814 19.5416 15.8309C19.3527 15.8477 19.1785 15.9364 19.0573 16.0774C18.5754 16.6423 18.2006 17.2851 17.9501 17.9762C17.8944 18.1448 17.9078 18.3277 17.9876 18.487C18.0673 18.6463 18.2073 18.77 18.3787 18.8324V18.8324Z" fill="white"/>
<path d="M21.5141 24.2388C21.0072 23.958 20.5551 23.5934 20.1784 23.1617C20.0562 23.0216 19.8815 22.9341 19.6926 22.9186C19.5037 22.9031 19.3162 22.9607 19.1713 23.0788C19.0263 23.1969 18.9359 23.3658 18.9198 23.5484C18.9037 23.731 18.9634 23.9123 19.0855 24.0524C19.5693 24.6058 20.1495 25.0731 20.7998 25.4333C20.8811 25.4833 20.972 25.5168 21.0671 25.5319C21.1622 25.5471 21.2594 25.5434 21.353 25.5213C21.4465 25.4991 21.5345 25.4589 21.6116 25.403C21.6886 25.3472 21.7532 25.2768 21.8014 25.1962C21.8496 25.1155 21.8805 25.0263 21.8921 24.9339C21.9037 24.8414 21.8959 24.7477 21.869 24.6582C21.8422 24.5688 21.7969 24.4855 21.7359 24.4135C21.6749 24.3414 21.5995 24.282 21.5141 24.2388V24.2388Z" fill="white"/>
<path d="M30.3429 21.0695C30.4005 20.7318 30.4292 20.39 30.4286 20.0476V19.9993C30.4286 19.8162 30.3533 19.6405 30.2194 19.511C30.0854 19.3816 29.9037 19.3088 29.7143 19.3088C29.5249 19.3088 29.3432 19.3816 29.2092 19.511C29.0753 19.6405 29 19.8162 29 19.9993V20.0476C28.9957 20.279 28.9742 20.5097 28.9357 20.7381C28.7214 20.7381 28.5072 20.7381 28.2857 20.7381C26.7027 20.7415 25.1767 21.3095 24 22.3331C22.8233 21.3095 21.2973 20.7415 19.7143 20.7381C19.4929 20.7381 19.2786 20.7381 19.0643 20.7381C19.0258 20.5097 19.0043 20.279 19 20.0476C19 19.8645 18.9248 19.6889 18.7908 19.5594C18.6569 19.4299 18.4752 19.3571 18.2857 19.3571C18.0963 19.3571 17.9146 19.4299 17.7807 19.5594C17.6467 19.6889 17.5714 19.8645 17.5714 20.0476C17.5748 20.3809 17.6058 20.7134 17.6643 21.0419C16.7624 21.3376 15.9397 21.8234 15.2557 22.4641C14.5717 23.1048 14.0436 23.8844 13.7094 24.7466C13.3753 25.6087 13.2435 26.5318 13.3235 27.4492C13.4036 28.3667 13.6935 29.2554 14.1724 30.0512C14.6512 30.8471 15.3071 31.5301 16.0924 32.051C16.8777 32.5719 17.773 32.9175 18.7134 33.063C19.6539 33.2085 20.616 33.1502 21.5303 32.8923C22.4446 32.6344 23.2881 32.1833 24 31.5717C24.7097 32.1902 25.5531 32.648 26.4688 32.9118C27.3846 33.1756 28.3497 33.2387 29.2938 33.0966C30.238 32.9545 31.1375 32.6107 31.9269 32.0903C32.7163 31.5698 33.3758 30.8858 33.8574 30.088C34.3389 29.2901 34.6304 28.3986 34.7106 27.4781C34.7909 26.5577 34.6578 25.6316 34.3212 24.7671C33.9846 23.9026 33.4528 23.1216 32.7646 22.4807C32.0764 21.8399 31.2491 21.3555 30.3429 21.0626V21.0695ZM24 29.4312C23.5346 28.6825 23.2877 27.8259 23.2857 26.9524C23.2883 26.7095 23.3098 26.4671 23.35 26.2274C23.7844 26.274 24.2228 26.274 24.6572 26.2274C24.695 26.4673 24.7141 26.7097 24.7143 26.9524C24.7123 27.8259 24.4655 28.6825 24 29.4312V29.4312ZM24 24.4736C24.081 24.6025 24.1524 24.7336 24.2143 24.8671L24 24.881H23.7857C23.8476 24.7337 23.9191 24.5979 24 24.4736ZM16.1786 30.3702C15.5803 29.7905 15.1442 29.0733 14.9112 28.2859C14.6782 27.4986 14.656 26.6669 14.8467 25.869C15.0373 25.0711 15.4346 24.3331 16.0011 23.7243C16.5677 23.1154 17.285 22.6557 18.0857 22.3883C18.1707 22.481 18.2799 22.5498 18.4019 22.5876C18.5238 22.6255 18.6541 22.6309 18.7789 22.6034C18.9038 22.5758 19.0187 22.5163 19.1117 22.4311C19.2046 22.3459 19.2721 22.2381 19.3072 22.119H19.7143C20.9457 22.1199 22.1335 22.56 23.05 23.355C22.2797 24.4055 21.8659 25.6613 21.8659 26.9489C21.8659 28.2366 22.2797 29.4924 23.05 30.5429C22.0981 31.3678 20.8554 31.809 19.5773 31.7756C18.2993 31.7422 17.0831 31.2368 16.1786 30.3633V30.3702ZM31.8214 30.3702C30.917 31.2437 29.7007 31.7491 28.4227 31.7825C27.1447 31.8159 25.902 31.3747 24.95 30.5498C25.7204 29.4993 26.1342 28.2435 26.1342 26.9558C26.1342 25.6682 25.7204 24.4124 24.95 23.3619C25.8655 22.5644 27.0534 22.1218 28.2857 22.119H28.7C28.732 22.2193 28.7872 22.3113 28.8615 22.3879C28.9358 22.4644 29.0271 22.5236 29.1286 22.561C29.2641 22.6072 29.411 22.6128 29.5499 22.5771C29.6888 22.5413 29.8133 22.4659 29.9072 22.3607C30.7098 22.6268 31.4292 23.086 31.9976 23.695C32.5659 24.304 32.9646 25.0429 33.1561 25.842C33.3476 26.641 33.3256 27.4741 33.0921 28.2627C32.8586 29.0512 32.4213 29.7694 31.8214 30.3495V30.3702Z" fill="white"/>
</svg>
