<?xml version="1.0" encoding="UTF-8"?>
<svg width="1200pt" height="1200pt" version="1.1" viewBox="0 0 1200 1200" xmlns="http://www.w3.org/2000/svg">
 <path d="m1067.2 448.88c0.60156-1.5586 1.043-3.1562 1.2617-4.7891 0.011718-0.085938 0.035156-0.16797 0.046875-0.26562 0.20312-1.7148 0.12109-3.4453-0.10938-5.1719-0.058594-0.44531-0.14453-0.875-0.23828-1.3086-0.30078-1.5234-0.75781-3.0117-1.3906-4.4648-0.085938-0.16797-0.085938-0.34766-0.16797-0.51562-0.023438-0.046876-0.070313-0.085938-0.097657-0.14453-0.67187-1.3555-1.4531-2.6758-2.4258-3.8984l-187.44-235.41c-0.12109-0.15625-0.27734-0.26562-0.40625-0.40625-0.67188-0.79297-1.4141-1.5-2.207-2.207-0.33594-0.30078-0.66016-0.63672-1.0312-0.92578-0.82812-0.64844-1.7539-1.1875-2.7109-1.7031-0.38281-0.21484-0.74219-0.48047-1.1406-0.66016-0.070312-0.023437-0.13281-0.085937-0.20312-0.12109-2.7461-1.2617-5.6406-1.8477-8.4844-1.8711-0.097656 0-0.17969-0.023437-0.25391-0.023437h-260.16-0.035157-0.035156-260.16c-0.085938 0-0.15625 0.023437-0.23828 0.023437-2.8438 0.035156-5.7461 0.61328-8.5078 1.8828-0.070312 0.035156-0.13281 0.085937-0.20312 0.12109-0.39453 0.19141-0.75781 0.45703-1.1289 0.66016-0.96094 0.51562-1.8828 1.0547-2.7344 1.7148-0.35938 0.27734-0.67188 0.61328-1.0195 0.91016-0.78125 0.69531-1.5352 1.4023-2.207 2.207-0.13281 0.14453-0.28906 0.25391-0.40625 0.40625l-187.44 235.41c-0.97266 1.2227-1.7539 2.5312-2.4258 3.8984-0.023438 0.046875-0.070312 0.085937-0.097656 0.14453-0.085938 0.16797-0.085938 0.34766-0.16797 0.51562-0.64844 1.4531-1.0938 2.9414-1.3906 4.4531-0.097656 0.44531-0.17969 0.875-0.23828 1.3203-0.22656 1.7266-0.30078 3.457-0.10938 5.1719 0.011718 0.097656 0.035156 0.17969 0.046875 0.26562 0.22656 1.6445 0.67188 3.2383 1.2617 4.7891 0.16797 0.42188 0.33594 0.81641 0.52734 1.2227 0.67188 1.4766 1.4766 2.8906 2.4961 4.1992 0.085937 0.097656 0.12109 0.22656 0.20312 0.32422l0.16797 0.20312c0.023437 0.011718 0.035156 0.035156 0.046875 0.058594l447.42 552.32s0.011719 0 0.011719 0.011719c0.89844 1.1172 1.9219 2.1484 3.0859 3.0859 0.046875 0.035157 0.10938 0.046876 0.15625 0.085938 0.10938 0.085938 0.20312 0.17969 0.30078 0.26562 0.097656 0.058594 0.20312 0.10938 0.28906 0.17969 1.5352 1.1406 3.2148 1.9805 4.9453 2.6523 0.25391 0.097656 0.44531 0.27734 0.69531 0.35938 0.25391 0.085938 0.55078 0.070313 0.80469 0.14453 1.9453 0.58984 3.9375 0.99609 5.9648 0.99609h0.046875 0.011719 0.011719 0.046874c2.0273 0 4.0195-0.40625 5.9648-0.99609 0.25391-0.070312 0.55078-0.058593 0.80469-0.14453 0.25391-0.085937 0.44531-0.26562 0.69531-0.35938 1.7539-0.67188 3.4219-1.5117 4.957-2.6641 0.085937-0.058594 0.20312-0.10938 0.27734-0.16797 0.10938-0.085937 0.20312-0.17969 0.30078-0.26562 0.046876-0.035156 0.10938-0.046875 0.15625-0.085938 1.1641-0.9375 2.1836-1.9805 3.0859-3.0859 0 0 0.011719 0 0.011719-0.011719l447.42-552.32c0.011718-0.023438 0.023437-0.035157 0.046875-0.058594l0.16797-0.20312c0.085937-0.097657 0.12109-0.22656 0.19141-0.32422 1.0312-1.3086 1.8359-2.7227 2.5195-4.1992 0.21484-0.41406 0.39453-0.80859 0.5625-1.2305zm-328.18-28.477h-277.99l-88.488-193.41h227.45 0.035156 0.035156 227.45zm-14.09 42-124.91 452.64-124.91-452.64zm-389.97-216.57 79.871 174.57h-218.88zm530.13 0 139.01 174.57h-218.88zm-433.54 216.57 121.48 440.23-356.61-440.23zm215.46 440.23 121.48-440.23h235.13z" fill="#2d3042"/>
</svg>
