<svg width="37" height="37" viewBox="0 0 37 37" fill="none" xmlns="http://www.w3.org/2000/svg">
<path d="M20.0417 6.04148V11.5625H29.2992C30.9979 11.5625 32.375 12.9416 32.375 14.6367V33.155C32.375 34.8529 30.9989 36.2292 29.2992 36.2292H7.70076C6.00207 36.2292 4.625 34.8502 4.625 33.155V14.6367C4.625 12.9389 6.00113 11.5625 7.70076 11.5625H16.9583V6.03648L15.2171 7.77773C14.6206 8.37424 13.6531 8.37394 13.0469 7.76768C12.4448 7.16562 12.4484 6.18594 13.0368 5.59749L17.4174 1.21689C17.714 0.920286 18.1023 0.771239 18.4924 0.770874L18.5041 0.775476C18.8957 0.776312 19.285 0.924299 19.5776 1.21689L23.9582 5.59749C24.5547 6.19399 24.5544 7.16143 23.9481 7.76768C23.3461 8.36974 22.3664 8.36619 21.7779 7.77773L20.0417 6.04148ZM16.9583 14.6459H7.70833V33.1459H29.2917V14.6459H20.0417V20.8148C20.0417 21.665 19.3574 22.3542 18.5 22.3542C17.6486 22.3542 16.9583 21.6643 16.9583 20.8148V14.6459ZM12.3333 11.5625V14.6459H24.6667V11.5625H12.3333ZM16.9583 11.5625H20.0417V14.6459H16.9583V11.5625Z" fill="#565454"/>
</svg>
