<svg width="1200" height="1200" viewBox="0 0 1200 1200" fill="none" xmlns="http://www.w3.org/2000/svg">
<path d="M1097.8 287.16C1070.94 287.191 1045.18 297.875 1026.19 316.871C1007.2 335.863 996.511 361.617 996.48 388.48V434.628C996.472 440.272 994.226 445.687 990.23 449.679C986.238 453.667 980.82 455.909 975.175 455.909H967.605V432.237C967.616 383.499 957.913 335.245 939.054 290.297C920.195 245.356 892.566 204.621 857.777 170.487L883.558 140.628C888.745 134.242 890.206 125.597 887.398 117.862C884.593 110.124 877.933 104.424 869.859 102.846C861.78 101.272 853.467 104.046 847.956 110.159L822.479 139.761C764.952 95.792 695.669 69.894 623.399 65.347V25.785C623.399 17.41 618.931 9.67598 611.68 5.48798C604.43 1.29998 595.492 1.30048 588.242 5.48798C580.992 9.67548 576.523 17.41 576.523 25.785V65.347C504.257 69.8939 434.974 95.792 377.444 139.761L351.966 110.159C346.455 104.046 338.143 101.272 330.065 102.846C321.99 104.425 315.331 110.124 312.526 117.862C309.717 125.597 311.178 134.241 316.365 140.628L342.146 170.558C307.361 204.683 279.732 245.406 260.876 290.338C242.017 335.272 232.31 383.51 232.317 432.238V455.91H224.747C219.102 455.91 213.685 453.668 209.692 449.68C205.696 445.688 203.45 440.274 203.442 434.629V388.481C203.442 352.282 184.13 318.833 152.782 300.735C121.434 282.637 82.809 282.637 51.462 300.735C20.114 318.833 0.802002 352.282 0.802002 388.481V434.629C0.864502 494.008 24.478 550.929 66.462 592.919C108.446 634.909 165.368 658.528 224.752 658.595H232.322V721.15H219.01C202.99 721.17 187.635 727.541 176.307 738.869C164.979 750.197 158.608 765.553 158.588 781.572V850.056C158.608 866.072 164.979 881.427 176.307 892.751C187.636 904.075 202.995 910.442 219.01 910.454H231.69L296.284 1130.36C302.077 1149.75 313.948 1166.75 330.147 1178.87C346.342 1190.99 366.01 1197.57 386.237 1197.65H813.687C833.921 1197.57 853.589 1190.97 869.789 1178.85C885.989 1166.72 897.855 1149.71 903.641 1130.32L968.235 910.407H995.633C1011.65 910.387 1027 904.02 1038.32 892.696C1049.65 881.372 1056.01 866.02 1056.03 850.008V781.524C1056.01 765.508 1049.65 750.153 1038.32 738.829C1027 727.501 1011.65 721.126 995.633 721.102H967.508V658.594H975.079C1034.45 658.528 1091.37 634.914 1133.35 592.934C1175.33 550.957 1198.95 494.039 1199.02 434.674V388.479C1198.99 361.631 1188.32 335.893 1169.35 316.901C1150.37 297.909 1124.65 287.213 1097.8 287.159L1097.8 287.16ZM858.74 1117.11C855.853 1126.82 849.908 1135.34 841.795 1141.41C833.682 1147.48 823.826 1150.77 813.693 1150.79H386.243C376.122 1150.75 366.286 1147.45 358.184 1141.39C350.082 1135.33 344.153 1126.81 341.266 1117.11L280.539 910.411H919.399L858.74 1117.11ZM1009.23 781.53V850.014C1009.22 857.479 1003.17 863.526 995.707 863.537H219.007C211.534 863.537 205.472 857.486 205.46 850.014V781.53C205.46 774.05 211.526 767.983 219.007 767.983H995.627C1003.1 767.995 1009.15 774.057 1009.15 781.53H1009.23ZM1152.32 434.65C1152.27 481.607 1133.59 526.63 1100.38 559.83C1067.17 593.029 1022.14 611.693 975.179 611.725H944.171C937.956 611.725 931.995 614.194 927.597 618.588C923.202 622.987 920.734 628.947 920.734 635.162V721.154H279.204V635.162C279.204 628.947 276.735 622.986 272.34 618.588C267.942 614.194 261.981 611.725 255.766 611.725H224.758C177.817 611.674 132.809 593.006 99.6184 559.815C66.4234 526.624 47.7474 481.62 47.6924 434.675V388.48C47.6924 369.027 58.0714 351.054 74.9154 341.328C91.7594 331.605 112.517 331.605 129.36 341.328C146.204 351.055 156.583 369.027 156.583 388.48V434.628C156.607 452.702 163.798 470.026 176.583 482.804C189.364 495.581 206.688 502.765 224.763 502.784H255.771C261.986 502.784 267.947 500.315 272.345 495.921C276.74 491.522 279.209 485.562 279.209 479.347V432.238C279.209 255.468 423.089 111.448 599.979 111.448C776.869 111.448 920.749 255.468 920.749 432.238V479.347C920.749 485.561 923.217 491.523 927.612 495.921C932.01 500.315 937.971 502.784 944.186 502.784H975.194C993.268 502.764 1010.59 495.581 1023.37 482.804C1036.16 470.027 1043.35 452.702 1043.37 434.628V388.48C1043.37 369.027 1053.75 351.054 1070.6 341.328C1087.44 331.605 1108.2 331.605 1125.04 341.328C1141.89 351.055 1152.27 369.027 1152.27 388.48L1152.32 434.65Z" fill="#2D3042"/>
<path d="M469.27 431.81C469.27 456.779 449.028 477.021 424.059 477.021C399.09 477.021 378.848 456.779 378.848 431.81C378.848 406.841 399.09 386.599 424.059 386.599C449.028 386.599 469.27 406.841 469.27 431.81Z" fill="#2D3042"/>
<path d="M821.16 431.81C821.16 456.779 800.918 477.021 775.949 477.021C750.98 477.021 730.738 456.779 730.738 431.81C730.738 406.841 750.98 386.599 775.949 386.599C800.918 386.599 821.16 406.841 821.16 431.81Z" fill="#2D3042"/>
<path d="M705.21 475.78H494.79C488.575 475.78 482.614 478.249 478.216 482.643C473.821 487.041 471.353 493.002 471.353 499.217C471.353 545.178 495.873 587.651 535.677 610.627C575.482 633.607 624.521 633.607 664.327 610.627C704.132 587.647 728.651 545.174 728.651 499.217C728.651 493.002 726.182 487.041 721.787 482.643C717.389 478.249 711.428 475.78 705.213 475.78H705.21Z" fill="#2D3042"/>
</svg>
